<svg id="svg" version="1.1" width="1000" height="479" xmlns="http://www.w3.org/2000/svg" xmlns:xlink="http://www.w3.org/1999/xlink" style="display: block;"><g id="svgg"><path id="path0" d="" stroke="none" fill="#000000" fill-rule="evenodd"></path><path id="path1" d="" stroke="none" fill="#555555" fill-rule="evenodd"></path><path id="path2" d="" stroke="none" fill="#ffffff" fill-rule="evenodd"></path><path id="path3" d="" stroke="none" fill="#003333" fill-rule="evenodd"></path><path id="path4" d="" stroke="none" fill="#00ffff" fill-rule="evenodd"></path><path id="path5" d="M133.788 15.600 C 123.520 17.013,115.214 24.215,112.108 34.400 C 111.511 36.357,111.413 40.295,111.219 70.102 L 111.000 103.605 104.743 98.229 L 98.487 92.853 93.258 98.171 L 88.029 103.490 104.230 119.645 C 113.141 128.530,120.582 135.800,120.767 135.800 C 121.180 135.800,153.800 103.914,153.800 103.510 C 153.800 103.350,151.203 100.864,148.030 97.985 L 142.259 92.751 136.825 98.175 C 133.835 101.159,131.253 103.600,131.086 103.600 C 130.918 103.600,130.831 89.065,130.891 71.300 L 131.000 39.000 132.186 36.660 C 135.299 30.516,138.814 29.029,150.200 29.038 C 161.192 29.048,164.246 30.240,167.600 35.831 L 169.000 38.165 169.130 43.882 L 169.259 49.600 180.630 49.600 L 192.000 49.600 191.993 44.100 C 191.975 29.487,185.163 19.665,172.600 16.138 C 169.904 15.381,138.540 14.947,133.788 15.600 M171.400 16.600 C 183.658 19.164,190.787 28.528,191.121 42.500 L 191.281 49.200 180.640 49.200 L 170.000 49.200 170.000 45.073 C 170.000 33.158,165.041 28.738,151.370 28.468 C 139.123 28.227,135.213 29.871,131.557 36.800 C 130.477 38.846,130.146 49.850,130.047 86.900 L 130.000 104.400 130.895 104.400 C 131.508 104.400,133.448 102.745,137.072 99.128 L 142.355 93.856 144.080 95.428 C 145.029 96.293,147.379 98.424,149.303 100.165 C 151.226 101.906,152.800 103.443,152.800 103.582 C 152.800 103.824,137.240 119.332,126.090 130.203 L 120.781 135.380 104.927 119.526 L 89.074 103.673 93.632 98.836 C 96.139 96.176,98.299 94.000,98.433 94.000 C 98.566 94.000,101.398 96.340,104.724 99.200 C 108.051 102.060,111.049 104.400,111.386 104.400 C 111.933 104.400,112.000 100.784,112.000 71.264 C 112.000 39.827,112.040 37.973,112.773 35.107 C 115.160 25.771,122.484 18.608,131.683 16.610 C 135.453 15.792,167.498 15.783,171.400 16.600 M147.282 31.096 C 148.758 31.173,151.278 31.173,152.882 31.097 C 154.487 31.021,153.280 30.958,150.200 30.958 C 147.120 30.957,145.807 31.019,147.282 31.096 M164.076 71.914 L 147.553 88.200 153.476 93.472 L 159.400 98.745 164.805 93.372 C 167.778 90.418,170.348 88.000,170.517 88.000 C 170.685 88.000,170.773 102.535,170.711 120.300 L 170.600 152.600 169.713 154.504 C 168.392 157.337,165.587 160.112,162.694 161.448 L 160.200 162.600 151.600 162.600 L 143.000 162.600 140.511 161.450 C 134.761 158.794,132.400 154.526,132.400 146.785 L 132.400 142.000 120.953 142.000 L 109.506 142.000 109.698 148.500 C 110.136 163.332,117.721 173.216,130.651 175.802 C 135.593 176.791,168.347 176.502,171.600 175.441 C 179.919 172.727,185.973 166.805,189.119 158.306 L 190.195 155.400 190.397 121.682 L 190.600 87.965 196.734 93.182 C 200.107 96.052,202.990 98.400,203.140 98.400 C 203.289 98.400,205.703 96.103,208.504 93.296 L 213.596 88.193 197.296 71.896 C 188.331 62.933,180.907 55.606,180.798 55.614 C 180.689 55.622,173.164 62.957,164.076 71.914 M196.832 72.278 C 205.410 80.790,212.377 87.972,212.314 88.238 C 212.251 88.504,210.174 90.809,207.697 93.361 L 203.194 98.001 197.109 92.800 C 193.762 89.940,190.704 87.600,190.312 87.600 C 189.635 87.600,189.600 89.232,189.600 120.736 C 189.600 152.425,189.566 154.007,188.810 156.962 C 186.567 165.732,179.711 172.621,170.769 175.091 C 166.821 176.181,133.078 176.161,129.200 175.066 C 117.092 171.648,110.425 162.081,110.407 148.100 L 110.400 142.800 120.952 142.800 L 131.503 142.800 131.668 147.741 C 131.915 155.159,134.276 159.260,139.913 162.062 C 141.738 162.969,142.123 163.000,151.600 163.000 L 161.400 163.000 163.542 161.872 C 167.420 159.830,170.192 156.219,171.184 151.917 C 171.427 150.864,171.584 138.094,171.590 118.900 L 171.600 87.600 170.705 87.600 C 170.092 87.600,168.171 89.237,164.600 92.800 L 159.389 98.001 154.194 93.325 C 151.337 90.753,149.000 88.447,149.000 88.200 C 149.000 87.666,180.319 56.800,180.861 56.800 C 181.067 56.800,188.253 63.765,196.832 72.278 M296.000 90.744 C 296.000 90.933,296.692 91.878,297.538 92.844 C 306.404 102.970,328.024 131.382,327.308 131.966 C 326.881 132.315,323.858 135.840,320.590 139.800 C 317.323 143.760,311.736 150.510,308.175 154.800 C 304.615 159.090,299.618 165.120,297.072 168.200 L 292.442 173.800 307.119 173.905 C 315.192 173.963,321.984 173.938,322.212 173.851 C 322.440 173.763,326.822 167.641,331.949 160.247 C 337.077 152.853,341.409 146.718,341.576 146.615 C 341.744 146.511,346.269 152.630,351.632 160.213 L 361.384 174.000 375.521 174.000 L 389.658 174.000 388.729 172.843 C 388.218 172.207,384.631 167.752,380.758 162.943 C 376.885 158.135,370.602 150.330,366.795 145.600 C 362.989 140.870,358.719 135.595,357.307 133.877 C 355.539 131.727,354.856 130.606,355.114 130.277 C 358.111 126.462,384.116 94.568,385.183 93.400 C 388.215 90.081,389.439 90.400,373.681 90.400 L 359.663 90.400 355.898 95.700 C 353.827 98.615,349.735 104.420,346.803 108.600 C 343.872 112.780,341.441 116.245,341.402 116.301 C 341.363 116.357,337.431 110.552,332.665 103.401 L 323.999 90.400 309.999 90.400 C 302.300 90.400,296.000 90.555,296.000 90.744 M47.547 93.500 C 46.296 96.269,39.699 111.027,28.192 136.800 C 24.606 144.830,19.416 156.435,16.659 162.589 C 13.901 168.743,11.679 173.783,11.722 173.789 C 11.765 173.795,17.380 173.744,24.200 173.677 L 36.600 173.553 40.070 165.077 L 43.540 156.600 61.929 156.496 L 80.317 156.392 81.699 159.696 C 82.459 161.513,84.040 165.376,85.213 168.279 L 87.345 173.558 99.772 173.679 C 106.608 173.746,112.232 173.798,112.270 173.797 C 112.309 173.795,110.846 170.465,109.020 166.397 C 107.194 162.328,99.039 144.150,90.897 126.000 C 82.755 107.850,75.864 92.505,75.583 91.900 L 75.072 90.800 61.919 90.800 L 48.767 90.800 47.547 93.500 M226.659 92.095 C 226.352 92.813,223.844 98.440,221.085 104.600 C 188.527 177.284,190.187 173.544,190.424 173.691 C 190.521 173.751,196.114 173.748,202.853 173.684 L 215.105 173.567 218.604 164.980 L 222.102 156.392 240.518 156.496 L 258.934 156.600 262.371 165.000 L 265.809 173.400 278.204 173.600 C 285.022 173.710,290.651 173.779,290.713 173.754 C 290.774 173.729,286.063 163.109,280.242 150.154 C 274.421 137.199,266.067 118.590,261.677 108.800 L 253.696 91.000 240.456 90.895 L 227.215 90.789 226.659 92.095 M332.553 104.396 C 341.177 117.377,341.317 117.559,341.980 116.686 C 342.351 116.199,346.499 110.337,351.199 103.660 C 355.899 96.983,359.938 91.445,360.176 91.354 C 360.413 91.263,366.325 91.236,373.314 91.294 L 386.022 91.400 369.994 111.098 L 353.967 130.795 368.857 149.298 C 377.046 159.474,384.805 169.105,386.099 170.700 L 388.451 173.600 375.082 173.600 L 361.712 173.600 351.811 159.600 C 346.366 151.900,341.796 145.608,341.656 145.617 C 341.515 145.626,337.080 151.917,331.800 159.596 L 322.200 173.558 307.865 173.579 L 293.531 173.600 296.106 170.500 C 318.153 143.958,328.389 131.349,328.229 130.933 C 328.122 130.652,321.251 121.823,312.961 111.311 C 304.671 100.800,297.712 91.975,297.495 91.700 C 297.182 91.302,299.828 91.202,310.451 91.210 L 323.800 91.221 332.553 104.396 M92.838 132.036 C 102.827 154.276,111.060 172.636,111.133 172.836 C 111.211 173.049,106.397 173.200,99.512 173.200 L 87.757 173.200 86.248 169.500 C 85.418 167.465,83.832 163.593,82.724 160.896 L 80.710 155.992 61.920 156.096 L 43.130 156.200 39.681 164.700 L 36.232 173.200 24.473 173.200 C 15.230 173.200,12.756 173.093,12.908 172.700 C 13.014 172.425,20.885 154.830,30.399 133.600 C 39.913 112.370,48.029 94.235,48.434 93.300 L 49.172 91.600 61.924 91.600 L 74.676 91.600 92.838 132.036 M271.418 132.200 C 281.401 154.420,289.576 172.735,289.584 172.900 C 289.593 173.065,284.335 173.196,277.900 173.191 L 266.200 173.181 262.754 164.691 L 259.308 156.200 240.510 156.096 L 221.711 155.992 218.206 164.596 L 214.701 173.200 202.945 173.200 L 191.189 173.200 191.742 171.900 C 192.249 170.710,226.061 95.236,227.226 92.695 L 227.733 91.589 240.500 91.695 L 253.267 91.800 271.418 132.200 M61.908 110.451 C 61.790 110.753,58.972 117.882,55.647 126.293 C 52.321 134.704,49.600 141.769,49.600 141.994 C 49.600 142.340,74.287 142.143,74.718 141.793 C 74.784 141.740,71.976 134.543,68.480 125.800 C 64.984 117.056,62.026 110.150,61.908 110.451 M234.280 125.922 C 230.826 134.687,228.000 141.980,228.000 142.130 C 228.000 142.383,252.833 142.029,253.140 141.771 C 253.270 141.662,241.452 111.616,240.838 110.493 C 240.682 110.209,237.808 116.971,234.280 125.922 M68.015 126.000 C 71.144 133.810,73.791 140.515,73.898 140.900 C 74.081 141.555,73.337 141.600,62.247 141.600 C 55.731 141.600,50.400 141.452,50.400 141.272 C 50.400 141.091,52.886 134.656,55.925 126.972 C 58.964 119.287,61.579 112.659,61.735 112.243 C 62.130 111.190,61.739 110.333,68.015 126.000 M246.780 126.750 L 252.727 141.600 240.721 141.600 C 229.457 141.600,228.730 141.557,228.966 140.900 C 230.332 137.102,240.567 111.633,240.681 111.748 C 240.764 111.831,243.509 118.582,246.780 126.750 " stroke="none" fill="#0c4c75" fill-rule="evenodd"></path><path id="path6" d="M142.578 29.171 C 136.714 30.107,131.799 34.793,131.010 40.200 C 130.785 41.739,130.810 41.716,131.652 39.604 C 134.278 33.018,138.587 31.021,150.200 31.009 L 158.600 31.000 161.261 32.261 C 164.438 33.766,166.904 36.115,168.267 38.934 L 169.266 41.000 169.050 39.447 C 168.543 35.818,164.469 31.270,160.375 29.765 C 158.348 29.019,146.090 28.610,142.578 29.171 M169.600 50.600 L 169.600 51.600 180.600 51.600 L 191.600 51.600 191.600 50.600 L 191.600 49.600 180.600 49.600 L 169.600 49.600 169.600 50.600 M164.798 93.384 L 159.400 98.768 154.289 94.146 C 150.707 90.905,148.984 89.597,148.529 89.772 C 147.967 89.988,148.009 90.159,148.840 91.050 C 150.935 93.297,158.921 100.200,159.425 100.200 C 160.253 100.200,170.800 89.569,170.800 88.734 C 170.800 87.494,170.370 87.827,164.798 93.384 M190.466 88.867 C 190.590 89.814,202.252 100.400,203.172 100.400 C 204.001 100.400,213.270 90.310,212.837 89.877 C 212.503 89.543,211.212 90.598,207.837 93.964 C 204.625 97.166,203.127 98.404,202.743 98.174 C 202.444 97.994,199.859 95.856,196.997 93.423 C 189.734 87.249,190.306 87.648,190.466 88.867 M296.400 92.976 C 296.400 93.105,299.422 97.033,303.116 101.705 C 306.810 106.377,313.587 114.970,318.177 120.800 C 328.152 133.471,327.103 132.257,327.631 131.729 C 327.939 131.421,323.744 125.835,312.930 112.154 C 300.028 95.831,296.400 91.622,296.400 92.976 M383.894 94.900 C 382.466 96.596,356.548 128.455,355.081 130.317 C 354.804 130.668,354.807 130.967,355.089 131.249 C 355.519 131.679,357.587 129.230,377.321 104.926 C 382.535 98.506,386.800 93.151,386.800 93.026 C 386.800 92.210,385.396 93.115,383.894 94.900 M88.572 105.246 C 88.334 105.631,120.209 138.018,120.798 137.991 C 121.733 137.948,153.732 105.609,153.292 105.151 C 152.875 104.719,151.249 106.139,144.292 113.012 C 139.621 117.626,132.425 124.729,128.299 128.797 L 120.798 136.194 105.097 120.497 C 89.132 104.535,89.055 104.464,88.572 105.246 M61.735 112.243 C 61.579 112.659,58.962 119.293,55.920 126.985 C 52.879 134.676,50.460 141.156,50.547 141.385 C 50.751 141.926,51.318 140.588,57.203 125.688 L 62.144 113.176 67.700 127.088 C 72.530 139.186,74.650 143.938,73.906 141.000 C 73.671 140.072,62.402 111.878,62.172 111.643 C 62.088 111.556,61.891 111.826,61.735 112.243 M234.642 126.442 C 229.691 138.932,228.380 142.673,229.345 141.567 C 229.425 141.475,232.000 135.053,235.068 127.295 L 240.644 113.190 246.273 127.279 C 249.369 135.027,252.092 141.431,252.324 141.508 C 252.670 141.623,241.175 112.242,240.681 111.747 C 240.597 111.664,237.880 118.276,234.642 126.442 M340.392 148.100 C 339.736 149.035,335.450 155.200,330.867 161.800 L 322.533 173.800 308.309 173.905 L 294.085 174.010 293.434 175.005 L 292.782 176.000 307.563 176.000 L 322.344 176.000 331.872 162.217 C 337.112 154.636,341.522 148.426,341.671 148.417 C 341.821 148.407,346.321 154.608,351.671 162.195 L 361.400 175.989 375.309 175.995 L 389.218 176.000 388.563 175.000 L 387.908 174.000 374.646 174.000 L 361.384 174.000 351.623 160.200 C 346.255 152.610,341.800 146.400,341.723 146.400 C 341.646 146.400,341.047 147.165,340.392 148.100 M43.079 157.700 C 42.786 158.415,41.209 162.280,39.574 166.288 L 36.600 173.577 24.849 173.688 C 13.164 173.799,13.094 173.805,12.500 174.700 L 11.902 175.600 24.251 175.593 L 36.600 175.586 40.150 166.793 L 43.700 158.000 61.971 158.000 L 80.242 158.000 83.821 166.793 L 87.400 175.585 99.749 175.593 L 112.098 175.600 111.500 174.700 C 110.906 173.805,110.840 173.799,99.130 173.694 L 87.357 173.588 85.219 168.294 C 84.043 165.382,82.460 161.515,81.700 159.700 L 80.320 156.400 61.965 156.400 L 43.611 156.400 43.079 157.700 M218.597 164.996 L 215.092 173.600 203.426 173.600 C 191.609 173.600,190.800 173.695,190.800 175.080 C 190.800 175.495,193.243 175.600,202.925 175.600 L 215.050 175.600 218.609 166.800 L 222.168 158.000 240.438 158.000 L 258.708 158.000 261.797 165.500 C 263.496 169.625,265.128 173.585,265.423 174.300 L 265.959 175.600 278.180 175.600 C 284.901 175.600,290.400 175.454,290.400 175.276 C 290.400 173.692,289.801 173.609,277.605 173.503 L 265.809 173.400 262.372 165.000 L 258.934 156.600 240.518 156.496 L 222.102 156.392 218.597 164.996 M110.408 157.227 C 110.319 163.889,118.948 174.125,126.870 176.754 C 132.492 178.620,165.058 179.149,171.000 177.471 C 179.320 175.121,186.134 168.770,188.767 160.913 C 189.888 157.565,189.793 156.369,188.649 159.445 C 185.884 166.885,179.517 172.858,171.600 175.441 C 168.347 176.502,135.593 176.791,130.651 175.802 C 121.790 174.030,114.308 167.598,111.337 159.200 C 110.831 157.770,110.413 156.882,110.408 157.227 " stroke="none" fill="#8c96a1" fill-rule="evenodd"></path><path id="path7" d="M131.683 16.610 C 122.484 18.608,115.160 25.771,112.773 35.107 C 112.040 37.973,112.000 39.827,112.000 71.264 C 112.000 100.784,111.933 104.400,111.386 104.400 C 111.049 104.400,108.051 102.060,104.724 99.200 C 101.398 96.340,98.566 94.000,98.433 94.000 C 98.299 94.000,96.139 96.176,93.632 98.836 L 89.074 103.673 104.927 119.526 L 120.781 135.380 126.090 130.203 C 137.240 119.332,152.800 103.824,152.800 103.582 C 152.800 103.443,151.226 101.906,149.303 100.165 C 147.379 98.424,145.029 96.293,144.080 95.428 L 142.355 93.856 137.072 99.128 C 133.448 102.745,131.508 104.400,130.895 104.400 L 130.000 104.400 130.047 86.900 C 130.146 49.850,130.477 38.846,131.557 36.800 C 135.213 29.871,139.123 28.227,151.370 28.468 C 165.041 28.738,170.000 33.158,170.000 45.073 L 170.000 49.200 180.640 49.200 L 191.281 49.200 191.121 42.500 C 190.787 28.528,183.658 19.164,171.400 16.600 C 167.498 15.783,135.453 15.792,131.683 16.610 M164.744 72.275 C 156.085 80.787,149.000 87.953,149.000 88.200 C 149.000 88.447,151.337 90.753,154.194 93.325 L 159.389 98.001 164.600 92.800 C 168.171 89.237,170.092 87.600,170.705 87.600 L 171.600 87.600 171.590 118.900 C 171.584 138.094,171.427 150.864,171.184 151.917 C 170.192 156.219,167.420 159.830,163.542 161.872 L 161.400 163.000 151.600 163.000 C 142.123 163.000,141.738 162.969,139.913 162.062 C 134.276 159.260,131.915 155.159,131.668 147.741 L 131.503 142.800 120.952 142.800 L 110.400 142.800 110.407 148.100 C 110.425 162.081,117.092 171.648,129.200 175.066 C 133.078 176.161,166.821 176.181,170.769 175.091 C 179.711 172.621,186.567 165.732,188.810 156.962 C 189.566 154.007,189.600 152.425,189.600 120.736 C 189.600 89.232,189.635 87.600,190.312 87.600 C 190.704 87.600,193.762 89.940,197.109 92.800 L 203.194 98.001 207.697 93.361 C 210.174 90.809,212.251 88.504,212.314 88.238 C 212.436 87.725,181.496 56.800,180.861 56.800 C 180.656 56.800,173.403 63.764,164.744 72.275 M297.495 91.700 C 297.712 91.975,304.671 100.800,312.961 111.311 C 321.251 121.823,328.122 130.652,328.229 130.933 C 328.389 131.349,318.153 143.958,296.106 170.500 L 293.531 173.600 307.865 173.579 L 322.200 173.558 331.800 159.596 C 337.080 151.917,341.515 145.626,341.656 145.617 C 341.796 145.608,346.366 151.900,351.811 159.600 L 361.712 173.600 375.082 173.600 L 388.451 173.600 386.099 170.700 C 384.805 169.105,377.046 159.474,368.857 149.298 L 353.967 130.795 369.994 111.098 L 386.022 91.400 373.314 91.294 C 366.325 91.236,360.413 91.263,360.176 91.354 C 359.938 91.445,355.899 96.983,351.199 103.660 C 346.499 110.337,342.351 116.199,341.980 116.686 C 341.317 117.559,341.177 117.377,332.553 104.396 L 323.800 91.221 310.451 91.210 C 299.828 91.202,297.182 91.302,297.495 91.700 M48.434 93.300 C 48.029 94.235,39.913 112.370,30.399 133.600 C 20.885 154.830,13.014 172.425,12.908 172.700 C 12.756 173.093,15.230 173.200,24.473 173.200 L 36.232 173.200 39.681 164.700 L 43.130 156.200 61.920 156.096 L 80.710 155.992 82.724 160.896 C 83.832 163.593,85.418 167.465,86.248 169.500 L 87.757 173.200 99.512 173.200 C 106.397 173.200,111.211 173.049,111.133 172.836 C 111.060 172.636,102.827 154.276,92.838 132.036 L 74.676 91.600 61.924 91.600 L 49.172 91.600 48.434 93.300 M227.226 92.695 C 226.061 95.236,192.249 170.710,191.742 171.900 L 191.189 173.200 202.945 173.200 L 214.701 173.200 218.206 164.596 L 221.711 155.992 240.510 156.096 L 259.308 156.200 262.754 164.691 L 266.200 173.181 277.900 173.191 C 284.335 173.196,289.593 173.065,289.584 172.900 C 289.576 172.735,281.401 154.420,271.418 132.200 L 253.267 91.800 240.500 91.695 L 227.733 91.589 227.226 92.695 M74.718 141.793 C 74.287 142.143,49.600 142.340,49.600 141.994 C 49.600 141.769,52.321 134.704,55.647 126.293 C 58.972 117.882,61.790 110.753,61.908 110.451 C 62.026 110.150,64.984 117.056,68.480 125.800 C 71.976 134.543,74.784 141.740,74.718 141.793 M247.197 126.327 C 250.543 134.757,253.217 141.707,253.140 141.771 C 252.833 142.029,228.000 142.383,228.000 142.130 C 228.000 141.167,240.614 110.084,240.838 110.493 C 240.991 110.772,243.852 117.897,247.197 126.327 " stroke="none" fill="#3a90cb" fill-rule="evenodd"></path><path id="path8" d="" stroke="none" fill="#000055" fill-rule="evenodd"></path><path id="path9" d="" stroke="none" fill="#0000ff" fill-rule="evenodd"></path></g></svg>