<svg id="svg" version="1.1" width="500" height="500" xmlns="http://www.w3.org/2000/svg" xmlns:xlink="http://www.w3.org/1999/xlink" style="display: block;"><g id="svgg"><path id="path0" d="M107.496 144.000 C 107.496 148.620,107.628 150.510,107.790 148.200 C 107.951 145.890,107.951 142.110,107.790 139.800 C 107.628 137.490,107.496 139.380,107.496 144.000 " stroke="none" fill="#b53306" fill-rule="evenodd"></path><path id="path1" d="M86.003 119.997 C 84.617 121.528,84.209 149.542,85.523 152.996 C 86.298 155.036,91.928 155.309,92.061 153.312 C 92.094 152.811,92.070 149.972,92.007 147.005 C 91.854 139.755,93.227 136.000,96.032 136.000 C 98.966 136.000,100.000 138.705,100.000 146.380 C 100.000 154.291,101.594 156.544,105.653 154.372 C 107.509 153.378,108.094 133.600,106.267 133.600 C 105.753 133.600,105.544 133.390,105.801 133.132 C 106.458 132.476,103.859 129.593,103.057 130.088 C 102.696 130.312,102.400 130.149,102.400 129.727 C 102.400 128.865,96.596 129.048,93.739 129.999 C 91.912 130.607,91.882 130.527,92.079 125.689 C 92.340 119.296,89.254 116.405,86.003 119.997 M191.800 119.264 C 190.368 120.098,189.626 147.032,190.904 151.800 C 191.415 153.707,196.164 154.476,197.189 152.818 C 197.843 151.759,197.808 121.474,197.151 119.760 C 196.572 118.251,193.955 118.009,191.800 119.264 M228.600 119.264 C 226.956 120.221,226.453 149.108,228.028 152.053 C 228.901 153.683,231.613 154.073,233.550 152.848 C 234.300 152.373,235.268 152.517,236.328 153.260 C 243.583 158.341,253.820 148.157,251.252 138.414 C 249.486 131.713,242.307 126.013,238.939 128.637 C 235.565 131.267,234.286 130.443,234.440 125.739 C 234.668 118.766,232.872 116.776,228.600 119.264 M180.495 120.154 C 180.715 120.509,180.603 120.800,180.247 120.800 C 179.891 120.799,179.725 122.608,179.878 124.818 C 180.205 129.532,179.513 132.202,178.423 130.437 C 176.209 126.855,165.981 129.887,164.936 134.435 C 164.791 135.068,164.294 135.818,163.833 136.103 C 163.372 136.388,163.227 136.996,163.511 137.455 C 163.794 137.914,163.667 138.512,163.227 138.783 C 162.044 139.515,162.933 146.041,164.563 148.587 C 166.333 151.353,167.996 153.122,168.012 152.257 C 168.019 151.896,168.318 152.063,168.677 152.628 C 169.499 153.924,174.660 154.803,176.565 153.972 C 177.354 153.628,178.270 153.403,178.600 153.473 C 178.930 153.543,179.200 153.171,179.200 152.647 C 179.200 152.123,179.693 152.369,180.296 153.193 C 181.217 154.453,181.821 154.568,184.096 153.916 L 186.800 153.142 187.035 138.771 C 187.346 119.750,187.216 119.087,183.206 119.324 C 181.495 119.425,180.275 119.798,180.495 120.154 M291.359 129.621 C 288.324 131.466,287.931 131.541,288.200 130.219 C 288.469 128.899,285.281 128.486,283.241 129.578 C 278.455 132.139,281.709 155.456,286.641 153.942 C 289.128 153.178,289.059 153.380,288.882 147.308 C 288.646 139.221,289.187 137.788,292.895 136.677 C 296.607 135.565,297.816 134.310,297.461 131.936 C 296.991 128.785,294.368 127.790,291.359 129.621 M117.494 129.574 C 114.950 130.344,112.000 133.149,112.000 134.800 C 112.000 135.460,111.687 136.000,111.305 136.000 C 110.081 136.000,109.611 141.847,110.567 145.178 C 111.539 148.571,114.102 152.850,115.044 152.656 C 115.350 152.593,116.622 152.963,117.871 153.478 C 120.985 154.762,124.771 154.349,125.694 152.625 C 126.407 151.292,126.586 151.285,128.461 152.513 C 130.072 153.569,130.856 153.649,132.455 152.920 L 134.445 152.014 134.223 141.025 L 134.000 130.036 131.761 129.250 C 130.218 128.708,129.077 128.742,128.089 129.358 C 127.210 129.908,126.221 129.978,125.528 129.539 C 124.174 128.681,120.393 128.698,117.494 129.574 M138.514 130.200 C 137.657 131.816,137.265 150.996,138.047 153.035 C 138.419 154.003,139.491 154.400,141.733 154.400 C 143.637 154.400,144.698 154.082,144.400 153.600 C 144.128 153.160,144.197 152.801,144.553 152.802 C 144.909 152.803,145.076 150.386,144.924 147.432 C 144.534 139.827,145.799 136.000,148.704 136.000 C 151.753 136.000,152.800 138.580,152.800 146.090 C 152.800 154.594,156.005 157.737,159.800 152.954 C 161.085 151.335,161.137 138.521,159.871 135.452 C 159.360 134.213,158.988 132.965,159.045 132.677 C 159.555 130.104,148.300 127.814,146.077 130.038 C 145.320 130.794,144.781 130.764,143.602 129.902 C 141.539 128.394,139.405 128.519,138.514 130.200 M209.200 129.340 C 202.875 131.012,197.197 144.066,201.445 147.171 C 201.768 147.407,202.477 148.610,203.020 149.845 C 203.563 151.080,204.365 151.869,204.803 151.598 C 205.242 151.327,205.600 151.473,205.600 151.922 C 205.600 155.127,219.837 154.450,222.600 151.114 C 226.329 146.609,224.069 144.329,217.644 146.116 C 212.830 147.454,208.800 146.793,208.800 144.665 C 208.800 144.154,220.561 143.517,223.320 143.879 C 224.064 143.976,224.778 140.689,224.423 138.800 C 224.258 137.920,224.095 136.830,224.061 136.378 C 223.992 135.450,219.200 129.999,219.200 130.849 C 219.200 131.150,218.732 131.008,218.160 130.533 C 216.900 129.487,211.410 128.756,209.200 129.340 M261.494 129.574 C 258.950 130.344,256.000 133.149,256.000 134.800 C 256.000 135.460,255.687 136.000,255.305 136.000 C 254.081 136.000,253.611 141.847,254.567 145.178 C 255.539 148.571,258.102 152.850,259.044 152.656 C 259.350 152.593,260.622 152.963,261.871 153.478 C 264.985 154.762,268.771 154.349,269.694 152.625 C 270.407 151.292,270.586 151.285,272.461 152.513 C 274.072 153.569,274.856 153.649,276.455 152.920 L 278.445 152.014 278.223 141.025 L 278.000 130.036 275.761 129.250 C 274.218 128.708,273.077 128.742,272.089 129.358 C 271.210 129.908,270.221 129.978,269.528 129.539 C 268.174 128.681,264.393 128.698,261.494 129.574 M304.457 129.366 C 300.298 130.462,297.776 136.863,300.232 140.088 C 300.771 140.796,303.332 142.346,305.923 143.531 C 311.823 146.229,311.110 147.774,304.740 146.095 C 298.611 144.479,296.374 147.929,300.728 152.284 C 302.342 153.898,312.000 155.067,312.000 153.648 C 312.000 153.277,312.915 152.744,314.033 152.463 C 315.151 152.183,315.868 151.634,315.628 151.245 C 315.387 150.855,315.588 150.404,316.074 150.242 C 320.114 148.895,316.491 142.137,310.200 139.284 C 306.313 137.521,304.887 135.398,308.200 136.307 C 312.088 137.374,316.003 137.770,316.055 137.102 C 316.085 136.716,316.240 135.416,316.399 134.214 C 316.920 130.270,310.663 127.730,304.457 129.366 M215.600 135.812 C 218.090 137.641,216.840 139.200,212.885 139.200 C 209.440 139.200,208.915 138.990,209.016 137.655 C 209.080 136.806,209.417 136.287,209.766 136.503 C 210.115 136.718,210.400 136.513,210.400 136.047 C 210.400 135.091,214.374 134.911,215.600 135.812 M241.643 136.552 C 245.660 138.925,243.952 147.200,239.445 147.200 C 235.771 147.200,232.560 138.880,235.815 137.795 C 236.362 137.613,236.572 137.078,236.281 136.608 C 235.981 136.122,236.128 135.984,236.621 136.289 C 237.099 136.585,237.716 136.460,237.992 136.013 C 238.663 134.928,238.969 134.973,241.643 136.552 M123.734 136.487 C 127.807 137.580,127.992 144.747,123.989 146.404 C 121.804 147.310,118.310 146.890,118.547 145.751 C 118.611 145.448,118.390 144.232,118.057 143.049 C 117.632 141.540,117.883 140.168,118.898 138.449 C 120.404 135.900,120.858 135.716,123.734 136.487 M176.550 136.491 C 180.803 137.632,180.341 145.846,175.970 146.807 C 173.577 147.332,171.381 146.589,171.222 145.200 C 171.171 144.760,170.932 143.612,170.691 142.649 C 170.220 140.774,172.584 135.993,173.972 136.011 C 174.428 136.017,175.587 136.233,176.550 136.491 M267.734 136.487 C 271.807 137.580,271.992 144.747,267.989 146.404 C 265.804 147.310,262.310 146.890,262.547 145.751 C 262.611 145.448,262.390 144.232,262.057 143.049 C 261.632 141.540,261.883 140.168,262.898 138.449 C 264.404 135.900,264.858 135.716,267.734 136.487 " stroke="none" fill="#ff3b00" fill-rule="evenodd"></path><path id="path2" d="M180.698 119.800 C 179.743 121.018,179.756 121.081,180.800 120.286 C 181.460 119.783,182.720 119.195,183.600 118.979 C 185.120 118.605,185.115 118.581,183.498 118.493 C 182.562 118.442,181.302 119.030,180.698 119.800 M92.248 126.000 C 92.252 128.640,92.402 129.624,92.580 128.186 C 92.758 126.748,92.754 124.588,92.572 123.386 C 92.389 122.184,92.243 123.360,92.248 126.000 M179.189 126.163 C 178.975 128.893,179.091 130.834,179.446 130.477 C 179.801 130.120,179.976 127.887,179.834 125.514 L 179.577 121.200 179.189 126.163 M197.933 136.400 C 197.934 144.760,198.053 148.071,198.197 143.758 C 198.341 139.446,198.340 132.606,198.196 128.558 C 198.051 124.511,197.933 128.040,197.933 136.400 M234.648 126.000 C 234.652 128.640,234.802 129.624,234.980 128.186 C 235.158 126.748,235.154 124.588,234.972 123.386 C 234.789 122.184,234.643 123.360,234.648 126.000 M210.600 138.973 C 211.810 139.156,213.790 139.156,215.000 138.973 C 216.210 138.790,215.220 138.640,212.800 138.640 C 210.380 138.640,209.390 138.790,210.600 138.973 M92.274 146.000 C 92.277 149.520,92.418 150.860,92.587 148.979 C 92.756 147.097,92.753 144.217,92.582 142.579 C 92.410 140.940,92.271 142.480,92.274 146.000 M145.074 146.000 C 145.077 149.520,145.218 150.860,145.387 148.979 C 145.556 147.097,145.553 144.217,145.382 142.579 C 145.210 140.940,145.071 142.480,145.074 146.000 M289.069 145.600 C 289.069 148.900,289.210 150.250,289.383 148.600 C 289.555 146.950,289.555 144.250,289.383 142.600 C 289.210 140.950,289.069 142.300,289.069 145.600 " stroke="none" fill="#ff3a00" fill-rule="evenodd"></path><path id="path3" d="M180.698 119.800 C 179.743 121.018,179.756 121.081,180.800 120.286 C 181.460 119.783,182.720 119.195,183.600 118.979 C 185.120 118.605,185.115 118.581,183.498 118.493 C 182.562 118.442,181.302 119.030,180.698 119.800 M92.248 126.000 C 92.252 128.640,92.402 129.624,92.580 128.186 C 92.758 126.748,92.754 124.588,92.572 123.386 C 92.389 122.184,92.243 123.360,92.248 126.000 M179.189 126.163 C 178.975 128.893,179.091 130.834,179.446 130.477 C 179.801 130.120,179.976 127.887,179.834 125.514 L 179.577 121.200 179.189 126.163 M197.933 136.400 C 197.934 144.760,198.053 148.071,198.197 143.758 C 198.341 139.446,198.340 132.606,198.196 128.558 C 198.051 124.511,197.933 128.040,197.933 136.400 M234.648 126.000 C 234.652 128.640,234.802 129.624,234.980 128.186 C 235.158 126.748,235.154 124.588,234.972 123.386 C 234.789 122.184,234.643 123.360,234.648 126.000 M210.600 138.973 C 211.810 139.156,213.790 139.156,215.000 138.973 C 216.210 138.790,215.220 138.640,212.800 138.640 C 210.380 138.640,209.390 138.790,210.600 138.973 M92.274 146.000 C 92.277 149.520,92.418 150.860,92.587 148.979 C 92.756 147.097,92.753 144.217,92.582 142.579 C 92.410 140.940,92.271 142.480,92.274 146.000 M145.074 146.000 C 145.077 149.520,145.218 150.860,145.387 148.979 C 145.556 147.097,145.553 144.217,145.382 142.579 C 145.210 140.940,145.071 142.480,145.074 146.000 M289.069 145.600 C 289.069 148.900,289.210 150.250,289.383 148.600 C 289.555 146.950,289.555 144.250,289.383 142.600 C 289.210 140.950,289.069 142.300,289.069 145.600 " stroke="none" fill="#ff3a00" fill-rule="evenodd"></path><path id="path4" d="M165.409 208.566 C 166.404 208.757,167.844 208.750,168.609 208.550 C 169.374 208.349,168.560 208.193,166.800 208.202 C 165.040 208.211,164.414 208.374,165.409 208.566 M231.809 208.566 C 232.804 208.757,234.244 208.750,235.009 208.550 C 235.774 208.349,234.960 208.193,233.200 208.202 C 231.440 208.211,230.814 208.374,231.809 208.566 M107.000 270.165 C 107.990 270.355,109.610 270.355,110.600 270.165 C 111.590 269.974,110.780 269.818,108.800 269.818 C 106.820 269.818,106.010 269.974,107.000 270.165 " stroke="none" fill="#372616" fill-rule="evenodd"></path><path id="path5" d="M71.386 240.800 C 71.386 242.340,71.550 242.970,71.751 242.200 C 71.953 241.430,71.953 240.170,71.751 239.400 C 71.550 238.630,71.386 239.260,71.386 240.800 " stroke="none" fill="#392516" fill-rule="evenodd"></path><path id="path6" d="M197.382 243.777 C 198.802 243.954,201.322 243.957,202.982 243.784 C 204.642 243.611,203.480 243.466,200.400 243.463 C 197.320 243.459,195.962 243.601,197.382 243.777 " stroke="none" fill="#382615" fill-rule="evenodd"></path><path id="path7" d="M154.800 209.991 C 144.814 212.844,136.987 218.127,119.508 233.815 C 114.718 238.113,109.180 242.432,107.200 243.413 C 96.758 248.584,85.447 241.035,89.688 231.726 C 91.889 226.896,98.435 227.567,99.200 232.700 C 99.582 235.264,99.658 235.317,100.897 233.892 C 108.827 224.772,98.703 214.748,85.316 218.465 C 70.931 222.460,67.303 248.017,79.446 259.817 C 94.172 274.125,117.489 273.265,153.061 257.100 C 194.865 238.104,205.135 238.104,246.939 257.100 C 277.510 270.992,295.970 273.381,312.423 265.575 C 337.086 253.874,331.220 213.672,305.483 218.020 C 297.922 219.297,294.169 227.657,298.454 233.677 C 300.599 236.688,301.414 236.620,300.952 233.470 C 300.259 228.748,306.402 226.916,309.542 230.908 C 313.481 235.916,310.193 242.917,302.990 244.857 C 296.551 246.590,291.733 243.992,277.591 231.157 C 257.340 212.776,247.894 208.265,231.200 209.002 C 219.037 209.539,210.350 213.643,203.823 221.938 C 199.799 227.051,200.155 227.030,196.586 222.348 C 188.055 211.159,169.708 205.733,154.800 209.991 " stroke="none" fill="#382716" fill-rule="evenodd"></path><path id="path8" d="M290.600 270.151 C 291.370 270.353,292.630 270.353,293.400 270.151 C 294.170 269.950,293.540 269.786,292.000 269.786 C 290.460 269.786,289.830 269.950,290.600 270.151 " stroke="none" fill="#382715" fill-rule="evenodd"></path><path id="path9" d="" stroke="none" fill="#392615" fill-rule="evenodd"></path></g></svg>