<svg id="svg" version="1.1" width="500" height="500" xmlns="http://www.w3.org/2000/svg" xmlns:xlink="http://www.w3.org/1999/xlink" style="display: block;"><g id="svgg"><path id="path0" d="M16.800 159.600 L 16.800 288.000 101.200 288.000 L 185.600 288.000 185.600 274.405 L 185.600 260.809 117.800 260.605 L 50.000 260.400 49.797 145.800 L 49.595 31.200 33.197 31.200 L 16.800 31.200 16.800 159.600 M273.788 100.348 C 257.198 103.498,239.189 112.358,229.964 121.907 C 213.587 138.861,205.130 158.772,203.104 185.146 C 201.775 202.448,204.530 225.391,209.277 236.553 C 225.205 274.010,251.228 291.251,292.000 291.360 C 345.731 291.505,379.780 256.848,381.392 200.375 C 381.886 183.081,379.044 161.909,375.239 154.527 C 374.862 153.797,372.952 149.780,370.993 145.600 C 360.590 123.398,341.997 108.394,316.400 101.545 C 308.099 99.323,282.909 98.616,273.788 100.348 M306.000 125.645 C 307.760 126.117,310.334 127.019,311.721 127.651 C 313.107 128.283,314.526 128.800,314.874 128.800 C 315.222 128.800,317.940 130.245,320.913 132.012 C 362.186 156.532,360.670 239.113,318.556 260.321 C 268.617 285.470,220.989 236.427,235.113 174.400 C 243.356 138.198,274.049 117.089,306.000 125.645 " stroke="none" fill="#000000" fill-rule="evenodd"></path><path id="path1" d="M16.390 159.600 C 16.390 230.440,16.485 259.302,16.600 223.737 C 16.715 188.172,16.715 130.212,16.600 94.937 C 16.485 59.662,16.390 88.760,16.390 159.600 M286.200 98.994 C 289.390 99.146,294.610 99.146,297.800 98.994 C 300.990 98.842,298.380 98.718,292.000 98.718 C 285.620 98.718,283.010 98.842,286.200 98.994 M275.400 99.751 C 276.170 99.953,277.430 99.953,278.200 99.751 C 278.970 99.550,278.340 99.386,276.800 99.386 C 275.260 99.386,274.630 99.550,275.400 99.751 M305.800 99.751 C 306.570 99.953,307.830 99.953,308.600 99.751 C 309.370 99.550,308.740 99.386,307.200 99.386 C 305.660 99.386,305.030 99.550,305.800 99.751 M249.400 107.653 C 247.310 108.741,245.600 109.810,245.600 110.029 C 245.600 110.386,253.520 106.645,254.333 105.904 C 255.324 105.001,252.721 105.924,249.400 107.653 M225.150 126.600 L 222.800 129.200 225.400 126.850 C 227.824 124.660,228.368 124.000,227.750 124.000 C 227.612 124.000,226.442 125.170,225.150 126.600 M287.400 124.551 C 288.170 124.753,289.430 124.753,290.200 124.551 C 290.970 124.350,290.340 124.186,288.800 124.186 C 287.260 124.186,286.630 124.350,287.400 124.551 M212.400 145.600 C 211.717 146.920,211.339 148.000,211.559 148.000 C 211.779 148.000,212.517 146.920,213.200 145.600 C 213.883 144.280,214.261 143.200,214.041 143.200 C 213.821 143.200,213.083 144.280,212.400 145.600 M205.200 166.400 C 204.896 167.783,204.815 169.081,205.018 169.285 C 205.222 169.489,205.619 168.506,205.900 167.100 C 206.567 163.765,205.921 163.119,205.200 166.400 M233.786 182.400 C 233.786 183.940,233.950 184.570,234.151 183.800 C 234.353 183.030,234.353 181.770,234.151 181.000 C 233.950 180.230,233.786 180.860,233.786 182.400 M202.618 186.400 C 202.618 188.380,202.774 189.190,202.965 188.200 C 203.155 187.210,203.155 185.590,202.965 184.600 C 202.774 183.610,202.618 184.420,202.618 186.400 M233.099 195.600 C 233.101 200.440,233.233 202.317,233.392 199.771 C 233.551 197.225,233.550 193.265,233.389 190.971 C 233.228 188.677,233.097 190.760,233.099 195.600 M350.648 195.600 C 350.652 198.240,350.802 199.224,350.980 197.786 C 351.158 196.348,351.154 194.188,350.972 192.986 C 350.789 191.784,350.643 192.960,350.648 195.600 M202.618 204.800 C 202.618 206.780,202.774 207.590,202.965 206.600 C 203.155 205.610,203.155 203.990,202.965 203.000 C 202.774 202.010,202.618 202.820,202.618 204.800 M233.802 209.200 C 233.811 210.960,233.974 211.586,234.166 210.591 C 234.357 209.596,234.350 208.156,234.150 207.391 C 233.949 206.626,233.793 207.440,233.802 209.200 M204.936 222.800 C 204.923 223.680,205.222 225.120,205.600 226.000 C 206.476 228.039,206.476 225.935,205.600 223.200 C 205.085 221.592,204.955 221.514,204.936 222.800 M185.929 274.400 C 185.929 282.100,186.049 285.250,186.196 281.400 C 186.342 277.550,186.342 271.250,186.196 267.400 C 186.049 263.550,185.929 266.700,185.929 274.400 M357.950 265.000 L 355.600 267.600 358.200 265.250 C 360.624 263.060,361.168 262.400,360.550 262.400 C 360.412 262.400,359.242 263.570,357.950 265.000 M228.000 267.600 C 230.390 270.020,232.525 272.000,232.745 272.000 C 232.965 272.000,231.190 270.020,228.800 267.600 C 226.410 265.180,224.275 263.200,224.055 263.200 C 223.835 263.200,225.610 265.180,228.000 267.600 M290.611 266.974 C 291.827 267.158,293.627 267.153,294.611 266.963 C 295.595 266.773,294.600 266.623,292.400 266.629 C 290.200 266.635,289.395 266.790,290.611 266.974 M248.000 281.992 C 248.000 282.540,252.898 284.968,253.264 284.602 C 253.438 284.429,252.324 283.688,250.790 282.956 C 249.255 282.225,248.000 281.791,248.000 281.992 M282.214 291.780 C 283.652 291.958,285.812 291.954,287.014 291.772 C 288.216 291.589,287.040 291.443,284.400 291.448 C 281.760 291.452,280.776 291.602,282.214 291.780 M297.414 291.780 C 298.852 291.958,301.012 291.954,302.214 291.772 C 303.416 291.589,302.240 291.443,299.600 291.448 C 296.960 291.452,295.976 291.602,297.414 291.780 " stroke="none" fill="#282828" fill-rule="evenodd"></path><path id="path2" d="M49.989 145.200 C 49.989 208.120,50.084 233.978,50.200 202.663 C 50.316 171.347,50.316 119.867,50.200 88.263 C 50.084 56.658,49.989 82.280,49.989 145.200 M350.400 117.850 C 350.400 117.988,351.570 119.158,353.000 120.450 L 355.600 122.800 353.250 120.200 C 351.060 117.776,350.400 117.232,350.400 117.850 M227.973 123.000 L 223.600 127.600 228.200 123.227 C 232.474 119.165,233.166 118.400,232.573 118.400 C 232.448 118.400,230.378 120.470,227.973 123.000 M330.367 140.200 C 332.328 142.290,334.038 144.000,334.167 144.000 C 334.767 144.000,334.132 143.282,330.600 139.967 L 326.800 136.400 330.367 140.200 M252.757 140.600 L 250.000 143.600 253.000 140.843 C 254.650 139.327,256.000 137.977,256.000 137.843 C 256.000 137.232,255.323 137.808,252.757 140.600 M381.856 188.800 C 381.856 191.660,382.001 192.830,382.179 191.400 C 382.356 189.970,382.356 187.630,382.179 186.200 C 382.001 184.770,381.856 185.940,381.856 188.800 M201.874 195.600 C 201.877 199.120,202.018 200.460,202.187 198.579 C 202.356 196.697,202.353 193.817,202.182 192.179 C 202.010 190.540,201.871 192.080,201.874 195.600 M381.856 202.400 C 381.856 205.260,382.001 206.430,382.179 205.000 C 382.356 203.570,382.356 201.230,382.179 199.800 C 382.001 198.370,381.856 199.540,381.856 202.400 M202.586 210.400 C 202.586 211.940,202.750 212.570,202.951 211.800 C 203.153 211.030,203.153 209.770,202.951 209.000 C 202.750 208.230,202.586 208.860,202.586 210.400 M85.060 260.600 C 103.903 260.719,134.503 260.719,153.060 260.600 C 171.617 260.480,156.200 260.382,118.800 260.382 C 81.400 260.382,66.217 260.480,85.060 260.600 M355.570 268.200 L 351.600 272.400 355.800 268.430 C 358.110 266.247,360.000 264.357,360.000 264.230 C 360.000 263.633,359.259 264.297,355.570 268.200 M285.000 266.151 C 285.770 266.353,287.030 266.353,287.800 266.151 C 288.570 265.950,287.940 265.786,286.400 265.786 C 284.860 265.786,284.230 265.950,285.000 266.151 M58.139 288.600 C 81.535 288.718,120.055 288.718,143.739 288.600 C 167.422 288.482,148.280 288.386,101.200 288.386 C 54.120 288.386,34.742 288.482,58.139 288.600 M288.600 292.586 C 290.470 292.754,293.530 292.754,295.400 292.586 C 297.270 292.417,295.740 292.280,292.000 292.280 C 288.260 292.280,286.730 292.417,288.600 292.586 " stroke="none" fill="#494949" fill-rule="evenodd"></path><path id="path3" d="M283.800 98.179 C 285.230 98.356,287.570 98.356,289.000 98.179 C 290.430 98.001,289.260 97.856,286.400 97.856 C 283.540 97.856,282.370 98.001,283.800 98.179 M295.014 98.180 C 296.452 98.358,298.612 98.354,299.814 98.172 C 301.016 97.989,299.840 97.843,297.200 97.848 C 294.560 97.852,293.576 98.002,295.014 98.180 M355.967 122.600 C 357.928 124.690,359.638 126.400,359.767 126.400 C 360.367 126.400,359.732 125.682,356.200 122.367 L 352.400 118.800 355.967 122.600 M286.209 125.366 C 287.204 125.557,288.644 125.550,289.409 125.350 C 290.174 125.149,289.360 124.993,287.600 125.002 C 285.840 125.011,285.214 125.174,286.209 125.366 M295.000 125.365 C 295.990 125.555,297.610 125.555,298.600 125.365 C 299.590 125.174,298.780 125.018,296.800 125.018 C 294.820 125.018,294.010 125.174,295.000 125.365 M252.773 141.400 L 248.400 146.000 253.000 141.627 C 257.274 137.565,257.966 136.800,257.373 136.800 C 257.248 136.800,255.178 138.870,252.773 141.400 M234.586 183.200 C 234.586 184.740,234.750 185.370,234.951 184.600 C 235.153 183.830,235.153 182.570,234.951 181.800 C 234.750 181.030,234.586 181.660,234.586 183.200 M201.829 186.000 C 201.835 188.200,201.990 189.005,202.174 187.789 C 202.358 186.573,202.353 184.773,202.163 183.789 C 201.973 182.805,201.823 183.800,201.829 186.000 M349.911 195.600 C 349.912 201.320,350.040 203.555,350.194 200.567 C 350.348 197.578,350.347 192.898,350.191 190.167 C 350.036 187.435,349.909 189.880,349.911 195.600 M233.888 196.000 C 233.888 200.180,234.023 201.890,234.188 199.800 C 234.353 197.710,234.353 194.290,234.188 192.200 C 234.023 190.110,233.888 191.820,233.888 196.000 M382.602 195.600 C 382.611 197.360,382.774 197.986,382.966 196.991 C 383.157 195.996,383.150 194.556,382.950 193.791 C 382.749 193.026,382.593 193.840,382.602 195.600 M201.829 205.200 C 201.835 207.400,201.990 208.205,202.174 206.989 C 202.358 205.773,202.353 203.973,202.163 202.989 C 201.973 202.005,201.823 203.000,201.829 205.200 M234.586 208.000 C 234.586 209.540,234.750 210.170,234.951 209.400 C 235.153 208.630,235.153 207.370,234.951 206.600 C 234.750 205.830,234.586 206.460,234.586 208.000 M252.767 249.800 C 254.728 251.890,256.438 253.600,256.567 253.600 C 257.167 253.600,256.532 252.882,253.000 249.567 L 249.200 246.000 252.767 249.800 M186.729 274.400 C 186.729 282.100,186.849 285.250,186.996 281.400 C 187.142 277.550,187.142 271.250,186.996 267.400 C 186.849 263.550,186.729 266.700,186.729 274.400 M290.611 266.174 C 291.827 266.358,293.627 266.353,294.611 266.163 C 295.595 265.973,294.600 265.823,292.400 265.829 C 290.200 265.835,289.395 265.990,290.611 266.174 M228.800 269.050 C 228.800 269.188,229.970 270.358,231.400 271.650 L 234.000 274.000 231.650 271.400 C 229.460 268.976,228.800 268.432,228.800 269.050 M281.800 292.551 C 282.570 292.753,283.830 292.753,284.600 292.551 C 285.370 292.350,284.740 292.186,283.200 292.186 C 281.660 292.186,281.030 292.350,281.800 292.551 M299.809 292.566 C 300.804 292.757,302.244 292.750,303.009 292.550 C 303.774 292.349,302.960 292.193,301.200 292.202 C 299.440 292.211,298.814 292.374,299.809 292.566 " stroke="none" fill="#838383" fill-rule="evenodd"></path><path id="path4" d="M24.200 30.997 C 28.930 31.138,36.670 31.138,41.400 30.997 C 46.130 30.856,42.260 30.740,32.800 30.740 C 23.340 30.740,19.470 30.856,24.200 30.997 M50.796 145.600 L 50.800 259.600 118.924 260.000 C 156.392 260.220,186.881 260.130,186.677 259.800 C 186.473 259.470,155.908 259.200,118.756 259.200 L 51.205 259.200 50.999 145.400 L 50.792 31.600 50.796 145.600 M302.600 98.151 C 303.370 98.353,304.630 98.353,305.400 98.151 C 306.170 97.950,305.540 97.786,304.000 97.786 C 302.460 97.786,301.830 97.950,302.600 98.151 M201.120 195.600 C 201.121 202.200,201.245 204.794,201.395 201.363 C 201.546 197.933,201.545 192.533,201.393 189.363 C 201.242 186.194,201.119 189.000,201.120 195.600 M234.648 190.000 C 234.652 192.640,234.802 193.624,234.980 192.186 C 235.158 190.748,235.154 188.588,234.972 187.386 C 234.789 186.184,234.643 187.360,234.648 190.000 M382.629 189.200 C 382.635 191.400,382.790 192.205,382.974 190.989 C 383.158 189.773,383.153 187.973,382.963 186.989 C 382.773 186.005,382.623 187.000,382.629 189.200 M234.648 201.200 C 234.652 203.840,234.802 204.824,234.980 203.386 C 235.158 201.948,235.154 199.788,234.972 198.586 C 234.789 197.384,234.643 198.560,234.648 201.200 M382.629 202.000 C 382.635 204.200,382.790 205.005,382.974 203.789 C 383.158 202.573,383.153 200.773,382.963 199.789 C 382.773 198.805,382.623 199.800,382.629 202.000 M226.800 268.000 C 228.967 270.200,230.920 272.000,231.140 272.000 C 231.360 272.000,229.767 270.200,227.600 268.000 C 225.433 265.800,223.480 264.000,223.260 264.000 C 223.040 264.000,224.633 265.800,226.800 268.000 M357.557 267.000 L 354.800 270.000 357.800 267.243 C 359.450 265.727,360.800 264.377,360.800 264.243 C 360.800 263.632,360.123 264.208,357.557 267.000 M285.000 265.351 C 285.770 265.553,287.030 265.553,287.800 265.351 C 288.570 265.150,287.940 264.986,286.400 264.986 C 284.860 264.986,284.230 265.150,285.000 265.351 M59.061 289.400 C 82.525 289.518,120.685 289.518,143.861 289.400 C 167.038 289.282,147.840 289.186,101.200 289.186 C 54.560 289.186,35.598 289.282,59.061 289.400 M290.600 293.351 C 291.370 293.553,292.630 293.553,293.400 293.351 C 294.170 293.150,293.540 292.986,292.000 292.986 C 290.460 292.986,289.830 293.150,290.600 293.351 " stroke="none" fill="#bababa" fill-rule="evenodd"></path><path id="path5" d="M15.590 160.000 C 15.590 230.620,15.685 259.510,15.800 224.200 C 15.915 188.890,15.915 131.110,15.800 95.800 C 15.685 60.490,15.590 89.380,15.590 160.000 M286.209 97.366 C 287.204 97.557,288.644 97.550,289.409 97.350 C 290.174 97.149,289.360 96.993,287.600 97.002 C 285.840 97.011,285.214 97.174,286.209 97.366 M295.009 97.366 C 296.004 97.557,297.444 97.550,298.209 97.350 C 298.974 97.149,298.160 96.993,296.400 97.002 C 294.640 97.011,294.014 97.174,295.009 97.366 M269.600 99.211 C 268.756 99.765,269.230 99.845,271.200 99.484 C 274.650 98.851,275.301 98.396,272.733 98.412 C 271.670 98.419,270.260 98.778,269.600 99.211 M310.400 98.709 C 310.400 98.879,311.461 99.174,312.758 99.364 C 314.055 99.555,314.933 99.416,314.711 99.055 C 314.314 98.414,310.400 98.100,310.400 98.709 M227.177 122.200 L 222.000 127.600 227.400 122.423 C 232.416 117.615,233.166 116.800,232.577 116.800 C 232.454 116.800,230.024 119.230,227.177 122.200 M356.000 122.000 C 358.835 124.860,361.334 127.200,361.554 127.200 C 361.774 127.200,359.635 124.860,356.800 122.000 C 353.965 119.140,351.466 116.800,351.246 116.800 C 351.026 116.800,353.165 119.140,356.000 122.000 M288.200 126.188 C 290.290 126.353,293.710 126.353,295.800 126.188 C 297.890 126.023,296.180 125.888,292.000 125.888 C 287.820 125.888,286.110 126.023,288.200 126.188 M272.400 129.228 C 270.400 130.192,270.333 130.303,272.000 129.895 C 274.267 129.341,276.815 128.043,275.600 128.060 C 275.160 128.067,273.720 128.592,272.400 129.228 M324.000 136.136 C 327.324 139.488,333.711 144.842,331.600 142.507 C 330.280 141.046,327.760 138.743,326.000 137.389 C 324.240 136.034,323.340 135.470,324.000 136.136 M253.557 141.400 L 250.800 144.400 253.800 141.643 C 255.450 140.127,256.800 138.777,256.800 138.643 C 256.800 138.032,256.123 138.608,253.557 141.400 M202.000 173.600 C 201.690 175.856,201.605 177.871,201.811 178.078 C 202.018 178.284,202.433 176.599,202.733 174.333 C 203.034 172.067,203.119 170.052,202.922 169.855 C 202.725 169.659,202.310 171.344,202.000 173.600 M348.186 180.800 C 348.186 182.340,348.350 182.970,348.551 182.200 C 348.753 181.430,348.753 180.170,348.551 179.400 C 348.350 178.630,348.186 179.260,348.186 180.800 M349.111 195.600 C 349.112 201.320,349.240 203.555,349.394 200.567 C 349.548 197.578,349.547 192.898,349.391 190.167 C 349.236 187.435,349.109 189.880,349.111 195.600 M348.186 210.400 C 348.186 211.940,348.350 212.570,348.551 211.800 C 348.753 211.030,348.753 209.770,348.551 209.000 C 348.350 208.230,348.186 208.860,348.186 210.400 M347.298 214.800 C 347.232 215.680,346.993 217.300,346.767 218.400 L 346.355 220.400 347.212 218.437 C 347.683 217.358,347.922 215.738,347.743 214.837 C 347.426 213.242,347.415 213.241,347.298 214.800 M202.456 219.267 C 202.487 220.330,202.839 221.920,203.237 222.800 C 203.743 223.915,203.815 223.430,203.475 221.200 C 202.909 217.486,202.375 216.471,202.456 219.267 M329.557 250.200 L 326.800 253.200 329.800 250.443 C 332.592 247.877,333.168 247.200,332.557 247.200 C 332.423 247.200,331.073 248.550,329.557 250.200 M257.746 253.252 C 258.487 254.103,260.287 255.481,261.746 256.314 C 264.878 258.100,264.053 257.214,259.600 254.008 C 257.739 252.668,256.963 252.352,257.746 253.252 M318.200 258.058 C 315.209 259.680,315.391 260.356,318.400 258.800 C 319.720 258.117,320.800 257.388,320.800 257.179 C 320.800 256.665,320.714 256.694,318.200 258.058 M84.600 259.000 C 103.190 259.119,133.610 259.119,152.200 259.000 C 170.790 258.880,155.580 258.782,118.400 258.782 C 81.220 258.782,66.010 258.880,84.600 259.000 M187.036 273.769 C 187.218 284.936,187.034 288.429,186.236 288.992 C 185.438 289.554,185.475 289.647,186.400 289.395 C 187.718 289.036,188.681 261.163,187.419 259.897 C 187.079 259.556,186.906 265.798,187.036 273.769 M307.600 262.400 C 306.591 262.833,306.444 263.088,307.200 263.088 C 307.860 263.088,309.120 262.778,310.000 262.400 C 311.009 261.967,311.156 261.712,310.400 261.712 C 309.740 261.712,308.480 262.022,307.600 262.400 M290.611 265.374 C 291.827 265.558,293.627 265.553,294.611 265.363 C 295.595 265.173,294.600 265.023,292.400 265.029 C 290.200 265.035,289.395 265.190,290.611 265.374 M225.600 267.526 C 227.711 269.885,235.200 276.368,235.200 275.838 C 235.200 275.666,232.590 273.223,229.400 270.409 C 226.210 267.595,224.500 266.297,225.600 267.526 M355.562 269.800 L 352.400 273.200 355.800 270.038 C 358.962 267.097,359.568 266.400,358.962 266.400 C 358.832 266.400,357.302 267.930,355.562 269.800 M277.200 292.813 C 279.631 293.419,290.147 293.843,289.533 293.311 C 289.350 293.152,285.960 292.840,282.000 292.618 C 278.040 292.396,275.880 292.484,277.200 292.813 M296.582 293.377 C 298.002 293.554,300.522 293.557,302.182 293.384 C 303.842 293.211,302.680 293.066,299.600 293.063 C 296.520 293.059,295.162 293.201,296.582 293.377 " stroke="none" fill="#e1e1e1" fill-rule="evenodd"></path><path id="path6" d="M0.000 200.000 L 0.000 400.000 200.000 400.000 L 400.000 400.000 400.000 200.000 L 400.000 0.000 200.000 0.000 L 0.000 0.000 0.000 200.000 M51.200 144.400 L 51.200 258.400 118.247 258.400 C 170.741 258.400,185.592 258.618,186.666 259.403 C 187.889 260.298,188.015 261.971,187.819 274.803 L 187.600 289.200 102.049 289.404 C 34.138 289.565,16.368 289.400,15.862 288.604 C 15.127 287.446,14.953 33.575,15.686 31.665 C 16.108 30.565,18.453 30.400,33.686 30.400 L 51.200 30.400 51.200 144.400 M304.400 97.608 C 309.240 98.052,313.920 98.750,314.800 99.160 C 315.680 99.570,318.286 100.282,320.591 100.742 C 361.234 108.861,388.176 156.916,382.520 211.200 C 376.504 268.927,329.145 303.284,271.584 291.677 C 224.461 282.176,199.430 246.238,201.045 190.400 C 202.357 144.997,226.506 109.998,262.641 101.129 C 265.368 100.459,268.500 99.572,269.600 99.158 C 274.822 97.189,291.656 96.440,304.400 97.608 M280.800 127.146 C 252.481 132.829,235.709 158.099,235.632 195.200 C 235.543 238.461,256.940 264.525,292.400 264.348 C 327.446 264.173,348.399 238.450,348.399 195.600 C 348.399 148.504,319.615 119.356,280.800 127.146 M385.200 348.800 L 385.200 369.200 200.600 369.402 L 16.000 369.603 16.000 349.335 C 16.000 338.187,16.241 328.826,16.535 328.532 C 16.829 328.237,99.899 328.087,201.135 328.198 L 385.200 328.400 385.200 348.800 " stroke="none" fill="#fefefe" fill-rule="evenodd"></path><path id="path7" d="M16.800 349.200 L 16.800 368.800 200.800 368.800 L 384.800 368.800 384.800 349.200 L 384.800 329.600 200.800 329.600 L 16.800 329.600 16.800 349.200 " stroke="none" fill="#3391fe" fill-rule="evenodd"></path><path id="path8" d="M16.185 349.000 L 16.371 369.200 16.599 349.402 L 16.828 329.603 201.014 329.400 L 385.200 329.197 200.600 328.998 L 16.000 328.800 16.185 349.000 " stroke="none" fill="#67adff" fill-rule="evenodd"></path><path id="path9" d="M200.800 328.599 L 384.800 328.803 384.800 348.800 L 384.800 368.797 200.400 369.001 L 16.000 369.205 200.600 369.203 L 385.200 369.200 385.200 348.800 L 385.200 328.400 201.000 328.397 L 16.800 328.395 200.800 328.599 " stroke="none" fill="#c3defe" fill-rule="evenodd"></path></g></svg>