<svg id="svg" version="1.1" width="526" height="500" xmlns="http://www.w3.org/2000/svg" xmlns:xlink="http://www.w3.org/1999/xlink" style="display: block;"><g id="svgg"><path id="path0" d="" stroke="none" fill="#000000" fill-rule="evenodd"></path><path id="path1" d="M136.375 117.435 C 136.854 118.450,137.367 119.160,137.514 119.013 C 137.986 118.541,136.803 115.589,136.142 115.589 C 135.791 115.589,135.896 116.420,136.375 117.435 M127.894 134.226 C 126.139 136.244,125.876 136.885,126.806 136.877 C 127.120 136.875,127.959 135.848,128.672 134.596 C 130.251 131.820,130.064 131.731,127.894 134.226 M369.893 164.545 C 369.672 165.121,369.603 167.260,369.741 169.298 L 369.991 173.004 370.357 168.250 C 370.726 163.446,370.625 162.637,369.893 164.545 M335.051 206.464 C 334.366 207.510,333.923 208.365,334.066 208.365 C 334.209 208.365,335.070 207.510,335.980 206.464 C 336.889 205.418,337.332 204.563,336.965 204.563 C 336.597 204.563,335.736 205.418,335.051 206.464 M272.291 212.943 C 270.853 214.172,269.827 215.315,270.010 215.483 C 270.193 215.650,271.540 214.633,273.004 213.221 C 276.270 210.071,275.844 209.905,272.291 212.943 M279.305 218.022 C 278.379 218.985,277.898 219.772,278.236 219.772 C 278.978 219.772,281.745 216.815,281.301 216.497 C 281.129 216.374,280.231 217.060,279.305 218.022 M331.556 226.233 C 332.537 227.277,333.481 227.990,333.653 227.817 C 334.028 227.442,331.023 224.335,330.286 224.335 C 330.004 224.335,330.575 225.189,331.556 226.233 M298.859 230.350 C 299.905 231.206,301.103 231.908,301.521 231.911 C 302.335 231.916,300.960 230.863,298.479 229.581 C 297.469 229.059,297.597 229.317,298.859 230.350 " stroke="none" fill="#333333" fill-rule="evenodd"></path><path id="path2" d="M128.922 116.309 C 128.650 116.750,127.616 117.110,126.625 117.110 C 125.634 117.110,124.310 117.624,123.683 118.251 C 123.055 118.878,122.081 119.392,121.517 119.392 C 120.264 119.392,115.589 123.556,115.589 124.672 C 115.589 125.114,115.247 125.475,114.829 125.475 C 114.411 125.475,114.068 126.123,114.068 126.915 C 114.068 127.707,113.555 128.551,112.928 128.792 C 112.300 129.033,111.787 129.774,111.787 130.439 C 111.787 131.104,111.516 131.481,111.184 131.276 C 110.853 131.071,110.528 131.619,110.462 132.494 C 110.396 133.368,110.028 134.286,109.644 134.532 C 108.888 135.018,104.943 143.338,104.943 144.446 C 104.943 144.817,104.626 145.234,104.238 145.374 C 103.850 145.513,102.864 147.338,102.047 149.430 C 100.696 152.885,100.294 153.275,97.650 153.708 C 96.049 153.970,94.611 154.569,94.455 155.039 C 94.298 155.509,93.086 155.919,91.762 155.949 C 86.732 156.065,81.233 161.162,82.858 164.200 C 83.476 165.354,84.183 165.713,85.201 165.390 C 86.003 165.135,88.720 164.802,91.238 164.650 C 95.947 164.365,96.771 164.935,94.677 167.029 C 94.049 167.656,93.536 168.809,93.536 169.591 C 93.536 170.373,93.194 171.224,92.776 171.483 C 92.357 171.741,92.015 172.959,92.015 174.189 C 92.015 175.419,91.673 176.426,91.255 176.426 C 90.837 176.426,90.494 177.624,90.494 179.087 C 90.494 180.551,90.132 181.749,89.689 181.749 C 89.246 181.749,89.095 182.091,89.354 182.510 C 89.612 182.928,89.461 183.270,89.018 183.270 C 88.575 183.270,88.213 184.468,88.213 185.932 C 88.213 187.395,87.871 188.593,87.452 188.593 C 87.034 188.593,86.692 189.962,86.692 191.635 C 86.692 193.649,86.353 194.677,85.687 194.677 C 85.005 194.677,84.625 195.958,84.503 198.669 C 84.404 200.865,84.001 202.987,83.607 203.384 C 82.492 204.507,82.698 223.403,83.840 224.806 C 86.309 227.839,88.973 230.591,88.973 230.108 C 88.973 229.813,89.734 230.104,90.664 230.755 C 94.047 233.125,109.957 231.725,110.873 228.977 C 111.027 228.515,111.638 228.137,112.231 228.137 C 112.823 228.137,113.308 227.795,113.308 227.376 C 113.308 226.958,113.621 226.616,114.004 226.616 C 114.662 226.616,116.619 225.115,120.449 221.673 C 121.380 220.837,123.146 218.783,124.375 217.110 C 125.603 215.437,126.800 213.897,127.036 213.688 C 129.420 211.573,129.956 209.602,128.717 207.503 C 127.275 205.062,125.475 204.076,125.475 205.727 C 125.475 206.342,125.048 206.848,124.525 206.852 C 124.002 206.856,122.890 207.726,122.053 208.785 C 115.355 217.263,104.183 222.889,104.183 217.784 C 104.183 217.205,103.840 216.730,103.422 216.730 C 102.957 216.730,102.662 213.181,102.662 207.605 C 102.662 202.028,102.957 198.479,103.422 198.479 C 103.840 198.479,104.183 196.981,104.183 195.150 C 104.183 193.119,104.627 191.452,105.323 190.875 C 105.951 190.354,106.464 188.772,106.464 187.359 C 106.464 185.947,106.806 184.791,107.224 184.791 C 107.643 184.791,107.985 183.635,107.985 182.222 C 107.985 180.810,108.422 179.291,108.956 178.848 C 109.490 178.405,110.005 177.095,110.101 175.937 C 110.197 174.779,110.615 173.491,111.031 173.075 C 111.447 172.660,111.787 171.553,111.787 170.615 C 111.787 169.678,112.129 168.700,112.548 168.441 C 112.966 168.183,113.319 167.221,113.333 166.305 C 113.398 162.035,115.200 161.353,127.128 161.085 C 139.339 160.809,141.016 160.185,140.545 156.087 L 140.304 153.992 129.515 153.782 L 118.726 153.571 119.749 151.500 C 120.311 150.361,121.115 148.574,121.534 147.529 C 121.953 146.483,122.501 145.114,122.753 144.487 C 123.005 143.859,123.866 142.319,124.668 141.065 C 125.469 139.810,126.150 138.170,126.180 137.421 C 126.211 136.671,126.935 135.307,127.791 134.389 C 129.597 132.450,131.559 128.738,131.559 127.260 C 131.559 126.696,131.878 126.236,132.268 126.236 C 132.658 126.236,133.182 125.589,133.433 124.800 C 133.684 124.010,134.693 122.496,135.675 121.436 C 138.298 118.606,136.905 116.057,132.562 115.739 C 130.832 115.612,129.194 115.869,128.922 116.309 M277.567 151.331 C 277.567 151.749,276.826 152.091,275.921 152.091 C 273.919 152.091,268.441 154.426,268.441 155.279 C 268.441 155.617,267.757 155.894,266.920 155.894 C 266.084 155.894,265.399 156.161,265.399 156.487 C 265.399 156.814,264.458 157.481,263.308 157.969 C 260.590 159.123,254.706 162.599,253.172 163.956 C 252.512 164.541,251.629 165.019,251.209 165.019 C 250.790 165.019,250.009 165.837,249.474 166.836 C 248.939 167.836,247.668 169.100,246.648 169.646 C 244.086 171.017,244.292 176.519,246.920 176.914 C 247.840 177.052,248.801 176.828,249.056 176.415 C 249.777 175.249,251.711 175.533,251.711 176.806 C 251.711 177.433,251.369 177.947,250.951 177.947 C 250.532 177.947,250.190 178.782,250.190 179.803 C 250.190 180.824,249.848 181.871,249.430 182.129 C 249.011 182.388,248.669 183.569,248.669 184.754 C 248.669 185.969,248.171 187.101,247.529 187.347 C 246.901 187.588,246.388 188.631,246.388 189.665 C 246.388 190.699,246.046 191.757,245.627 192.015 C 245.209 192.274,244.867 193.634,244.867 195.039 C 244.867 196.443,244.473 197.723,243.992 197.884 C 243.510 198.044,242.954 200.132,242.755 202.524 C 242.557 204.915,242.096 207.057,241.730 207.283 C 238.309 209.397,242.664 228.940,246.786 229.975 C 247.822 230.235,248.669 230.783,248.669 231.193 C 248.669 232.433,259.328 232.060,262.902 230.695 C 264.694 230.011,266.160 229.155,266.160 228.794 C 266.160 228.433,266.611 228.137,267.163 228.137 C 267.715 228.137,269.232 227.196,270.535 226.046 C 274.778 222.297,275.913 221.414,276.171 221.659 C 276.311 221.791,276.867 221.421,277.406 220.836 C 277.946 220.251,278.215 219.772,278.004 219.772 C 277.793 219.772,278.379 218.980,279.305 218.012 C 280.231 217.044,281.245 216.380,281.559 216.536 C 281.873 216.692,282.129 216.473,282.129 216.049 C 282.129 215.625,282.985 214.423,284.030 213.377 C 285.076 212.331,285.932 211.273,285.932 211.025 C 285.932 210.777,286.787 209.781,287.833 208.812 C 288.878 207.843,289.734 206.490,289.734 205.806 C 289.734 205.122,290.211 204.563,290.793 204.563 C 291.376 204.563,292.049 204.049,292.290 203.422 C 293.472 200.343,293.896 203.232,293.686 212.935 C 293.490 222.008,293.631 223.658,294.637 224.044 C 295.286 224.293,295.817 225.143,295.817 225.932 C 295.817 226.740,297.195 228.365,298.973 229.653 C 305.183 234.151,315.159 232.607,322.048 226.082 C 322.578 225.579,323.193 225.348,323.414 225.569 C 323.635 225.790,324.041 225.260,324.316 224.392 C 324.592 223.524,325.123 222.814,325.496 222.814 C 325.869 222.814,327.044 221.876,328.106 220.730 L 330.038 218.647 330.038 221.169 C 330.038 223.638,333.396 228.137,335.239 228.137 C 335.655 228.137,336.114 228.494,336.259 228.930 C 336.405 229.366,337.374 229.817,338.414 229.933 C 339.454 230.048,341.052 230.546,341.965 231.040 C 343.916 232.096,361.000 232.282,363.652 231.277 C 364.613 230.913,367.452 229.987,369.962 229.220 C 372.471 228.452,375.278 227.039,376.199 226.080 C 377.121 225.120,378.224 224.335,378.651 224.335 C 379.867 224.335,384.791 216.567,384.791 214.649 C 384.791 213.702,385.162 212.928,385.616 212.928 C 387.287 212.928,385.093 196.932,383.342 196.348 C 382.884 196.196,382.510 195.704,382.510 195.256 C 382.510 194.807,381.635 193.294,380.566 191.892 C 379.497 190.491,378.811 189.040,379.041 188.668 C 379.271 188.296,378.948 187.796,378.323 187.556 C 377.698 187.316,377.186 186.624,377.186 186.019 C 377.186 185.413,376.917 184.804,376.589 184.664 C 375.704 184.289,372.420 179.519,371.036 176.598 C 368.150 170.510,369.894 161.217,373.921 161.217 C 374.488 161.217,375.150 160.703,375.390 160.076 C 376.146 158.106,380.115 158.705,382.568 161.158 C 384.659 163.249,384.791 163.747,384.791 169.540 C 384.791 178.345,389.568 180.463,391.356 172.451 C 391.610 171.310,392.290 169.985,392.867 169.506 C 393.444 169.027,393.916 167.650,393.916 166.447 C 393.916 165.243,394.259 164.259,394.677 164.259 C 398.676 164.259,392.927 154.460,388.213 153.242 C 380.805 151.327,362.738 152.748,362.738 155.246 C 362.738 155.602,362.053 155.894,361.217 155.894 C 360.380 155.894,359.696 156.196,359.696 156.565 C 359.696 156.935,358.986 157.423,358.118 157.650 C 357.251 157.876,356.356 158.772,356.129 159.639 C 355.902 160.507,355.243 161.217,354.664 161.217 C 354.086 161.217,353.612 161.730,353.612 162.357 C 353.612 162.985,353.270 163.498,352.852 163.498 C 352.433 163.498,352.091 165.038,352.091 166.920 C 352.091 168.802,351.749 170.342,351.331 170.342 C 350.913 170.342,350.570 171.349,350.570 172.579 C 350.570 173.809,350.913 175.027,351.331 175.285 C 351.749 175.544,352.091 177.104,352.091 178.752 C 352.091 180.400,352.406 181.749,352.791 181.749 C 353.176 181.749,353.717 182.779,353.994 184.037 C 354.270 185.295,354.760 186.162,355.082 185.963 C 355.403 185.764,356.115 186.959,356.662 188.618 C 357.210 190.278,357.946 191.635,358.299 191.635 C 358.651 191.635,359.533 193.004,360.258 194.677 C 360.982 196.350,361.837 197.719,362.157 197.719 C 362.476 197.719,362.738 198.243,362.738 198.883 C 362.738 199.524,363.251 200.245,363.878 200.485 C 364.506 200.726,365.019 201.551,365.019 202.318 C 365.019 203.085,365.361 203.924,365.779 204.183 C 366.198 204.441,366.540 207.541,366.540 211.071 C 366.540 214.844,366.226 217.490,365.779 217.490 C 365.361 217.490,365.019 217.857,365.019 218.305 C 365.019 219.320,363.100 221.293,362.113 221.293 C 361.709 221.293,361.169 221.842,360.911 222.512 C 360.654 223.183,359.961 223.547,359.372 223.321 C 358.783 223.095,358.112 223.401,357.881 224.002 C 357.284 225.559,348.827 225.519,347.529 223.954 C 347.008 223.327,346.196 222.809,345.724 222.803 C 343.623 222.776,339.171 211.420,341.255 211.402 C 343.558 211.383,345.487 202.618,343.367 201.804 C 342.126 201.328,337.643 203.064,337.643 204.021 C 337.643 204.356,336.787 205.552,335.741 206.679 C 334.696 207.807,333.840 209.014,333.840 209.362 C 333.840 210.625,331.320 212.592,330.986 211.590 C 330.613 210.471,326.996 210.305,326.996 211.407 C 326.996 211.825,326.483 212.167,325.856 212.167 C 325.228 212.167,324.715 212.549,324.715 213.015 C 324.715 216.122,316.895 220.501,314.774 218.582 C 312.810 216.804,312.538 197.837,314.449 195.926 C 315.126 195.249,315.589 193.390,315.589 191.354 C 315.589 189.467,315.932 187.711,316.350 187.452 C 316.768 187.194,317.110 185.996,317.110 184.791 C 317.110 183.585,317.452 182.388,317.871 182.129 C 318.289 181.871,318.631 181.020,318.631 180.238 C 318.631 179.456,319.144 178.303,319.772 177.675 C 320.399 177.048,320.913 176.095,320.913 175.558 C 320.913 173.906,327.106 161.977,327.964 161.977 C 328.407 161.977,328.556 161.763,328.294 161.501 C 328.032 161.238,328.317 160.058,328.928 158.877 C 330.678 155.492,330.372 152.965,328.144 152.405 C 324.859 151.581,315.617 153.190,314.365 154.805 C 313.900 155.404,312.858 155.894,312.049 155.894 C 311.023 155.894,310.154 156.922,309.175 159.295 C 308.404 161.166,307.551 162.559,307.280 162.392 C 307.008 162.224,306.712 162.984,306.622 164.081 C 306.531 165.177,306.202 166.265,305.890 166.497 C 305.578 166.730,304.670 168.203,303.873 169.772 C 303.075 171.340,302.191 172.624,301.908 172.624 C 301.625 172.624,301.394 173.064,301.394 173.603 C 301.394 174.141,300.139 176.543,298.606 178.941 C 297.072 181.338,295.817 183.478,295.817 183.697 C 295.817 183.915,295.145 184.816,294.323 185.698 C 293.501 186.581,293.008 187.593,293.227 187.948 C 293.446 188.303,293.263 188.593,292.821 188.593 C 292.378 188.593,292.015 188.950,292.015 189.387 C 292.015 189.823,291.160 191.103,290.114 192.231 C 289.068 193.358,288.213 194.712,288.213 195.239 C 288.213 195.766,287.894 196.198,287.504 196.198 C 287.114 196.198,286.590 196.842,286.340 197.630 C 286.090 198.418,284.869 200.126,283.627 201.425 C 282.385 202.725,281.369 203.961,281.369 204.172 C 281.369 204.882,270.360 215.579,268.641 216.540 C 265.099 218.520,262.357 216.967,262.357 212.982 C 262.357 211.672,261.957 210.646,261.445 210.646 C 260.735 210.646,260.735 210.444,261.445 209.734 C 261.988 209.190,262.367 206.500,262.382 203.080 C 262.398 199.241,262.776 196.849,263.522 195.862 C 264.136 195.050,264.639 193.445,264.639 192.295 C 264.639 191.145,264.981 189.992,265.399 189.734 C 265.817 189.475,266.160 188.299,266.160 187.120 C 266.160 185.942,266.669 184.554,267.292 184.037 C 267.915 183.521,268.261 182.833,268.061 182.510 C 267.861 182.186,268.207 181.498,268.830 180.982 C 269.452 180.465,269.962 179.057,269.962 177.854 C 269.962 176.650,270.304 175.665,270.722 175.665 C 271.141 175.665,271.483 174.998,271.483 174.182 C 271.483 173.367,271.911 172.425,272.435 172.091 C 272.958 171.757,273.892 170.456,274.510 169.202 C 275.129 167.947,276.411 165.861,277.361 164.567 C 278.311 163.273,279.087 161.818,279.087 161.335 C 279.087 160.852,279.430 160.456,279.848 160.456 C 280.266 160.456,280.608 159.772,280.608 158.935 C 280.608 158.099,281.049 157.414,281.587 157.414 C 283.152 157.414,283.145 152.831,281.578 151.643 C 279.985 150.435,277.567 150.246,277.567 151.331 M47.516 152.784 C 47.091 153.211,45.597 153.648,44.196 153.755 C 42.794 153.862,41.480 154.387,41.275 154.921 C 41.070 155.456,40.296 155.894,39.555 155.894 C 38.815 155.894,37.776 156.415,37.247 157.053 C 36.718 157.690,36.112 158.038,35.900 157.827 C 35.367 157.294,31.941 161.378,31.940 162.548 C 31.940 163.070,31.597 163.498,31.179 163.498 C 30.760 163.498,30.418 164.549,30.418 165.834 C 30.418 167.118,29.905 168.683,29.278 169.310 C 27.830 170.758,27.832 173.161,29.282 175.942 C 29.907 177.140,30.418 179.108,30.418 180.315 C 30.418 181.522,30.760 182.510,31.179 182.510 C 31.597 182.510,31.939 183.035,31.939 183.677 C 31.939 184.944,33.798 188.101,35.925 190.448 C 37.129 191.775,37.607 193.255,37.352 194.867 C 37.303 195.181,37.734 195.437,38.311 195.437 C 38.887 195.437,39.809 196.549,40.359 197.909 C 40.909 199.268,41.652 200.582,42.010 200.829 C 42.369 201.076,42.717 202.017,42.785 202.920 C 42.854 203.824,43.350 204.563,43.888 204.563 C 45.299 204.563,45.244 215.484,43.827 216.901 C 43.254 217.473,42.547 218.696,42.254 219.617 C 41.962 220.539,41.232 221.293,40.633 221.293 C 40.034 221.293,39.544 221.628,39.544 222.039 C 39.544 222.449,38.691 222.999,37.648 223.261 C 36.605 223.522,35.941 224.042,36.172 224.416 C 36.830 225.480,26.707 225.225,25.417 224.144 C 24.793 223.622,23.805 222.766,23.222 222.243 C 22.639 221.721,21.795 221.293,21.347 221.293 C 20.899 221.293,20.532 220.437,20.532 219.392 C 20.532 218.346,20.190 217.490,19.772 217.490 C 17.728 217.490,19.442 209.520,21.784 208.137 C 24.074 206.785,22.732 201.521,20.098 201.521 C 18.065 201.521,12.217 207.222,12.186 209.234 C 12.176 209.921,11.654 210.681,11.027 210.921 C 10.399 211.162,9.886 211.903,9.886 212.569 C 9.886 213.234,9.616 213.611,9.287 213.408 C 8.957 213.204,8.613 213.939,8.522 215.040 C 8.431 216.142,8.016 217.383,7.600 217.799 C 6.616 218.783,6.620 222.053,7.605 222.053 C 8.023 222.053,8.365 222.502,8.365 223.051 C 8.365 223.599,9.029 224.760,9.840 225.631 C 10.651 226.502,11.165 227.422,10.981 227.676 C 10.797 227.929,10.855 227.985,11.110 227.800 C 11.365 227.615,12.814 228.128,14.331 228.941 C 15.847 229.753,17.671 230.418,18.385 230.418 C 19.098 230.418,19.894 230.760,20.152 231.179 C 20.773 232.184,41.273 232.187,42.278 231.182 C 42.695 230.765,44.159 230.294,45.531 230.134 C 46.904 229.974,48.411 229.460,48.881 228.990 C 49.350 228.521,50.203 228.137,50.777 228.137 C 51.350 228.137,52.258 227.709,52.793 227.186 C 53.329 226.663,55.358 224.917,57.302 223.305 C 59.246 221.694,60.837 219.726,60.837 218.933 C 60.837 218.140,61.179 217.490,61.597 217.490 C 62.015 217.490,62.357 216.158,62.357 214.530 C 62.357 212.728,62.764 211.413,63.397 211.171 C 64.851 210.613,64.851 203.042,63.397 203.042 C 62.716 203.042,62.357 202.124,62.357 200.380 C 62.357 198.916,62.015 197.719,61.597 197.719 C 61.179 197.719,60.837 196.981,60.837 196.079 C 60.837 195.178,59.981 193.319,58.935 191.948 C 57.890 190.577,57.034 189.090,57.034 188.644 C 57.034 188.198,56.734 187.833,56.366 187.833 C 55.999 187.833,55.283 186.831,54.775 185.606 C 54.268 184.381,53.371 183.194,52.782 182.968 C 52.193 182.742,51.711 182.197,51.711 181.758 C 51.711 181.318,50.856 179.603,49.810 177.947 C 48.764 176.290,47.909 173.902,47.909 172.639 C 47.909 171.376,47.567 170.342,47.148 170.342 C 46.730 170.342,46.388 169.829,46.388 169.202 C 46.388 168.574,46.730 168.061,47.148 168.061 C 47.567 168.061,47.909 167.059,47.909 165.835 C 47.909 164.293,48.552 163.126,50.000 162.041 C 51.150 161.178,52.505 160.127,53.010 159.704 C 57.725 155.758,63.118 161.258,63.118 170.012 C 63.118 178.351,65.695 179.999,68.987 173.764 C 71.272 169.437,71.483 168.834,71.483 166.614 C 71.483 165.388,71.887 164.251,72.380 164.086 C 75.992 162.882,71.507 154.553,66.540 153.239 C 62.838 152.260,48.381 151.914,47.516 152.784 M253.157 174.191 C 251.709 175.086,251.367 174.451,252.585 173.129 C 253.179 172.483,253.731 172.339,253.895 172.786 C 254.051 173.212,253.718 173.844,253.157 174.191 " stroke="none" fill="#606060" fill-rule="evenodd"></path><path id="path3" d="" stroke="none" fill="#555500" fill-rule="evenodd"></path><path id="path4" d="" stroke="none" fill="#999900" fill-rule="evenodd"></path><path id="path5" d="M60.266 354.136 C 60.998 354.328,62.196 354.328,62.928 354.136 C 63.660 353.945,63.061 353.789,61.597 353.789 C 60.133 353.789,59.534 353.945,60.266 354.136 " stroke="none" fill="#6db600" fill-rule="evenodd"></path><path id="path6" d="M310.541 5.703 C 310.271 6.407,309.115 6.844,307.523 6.844 C 306.104 6.844,304.943 7.186,304.943 7.605 C 304.943 8.023,304.087 8.365,303.042 8.365 C 301.996 8.365,301.141 8.701,301.141 9.111 C 301.141 9.521,300.288 10.071,299.245 10.333 C 298.202 10.595,297.538 11.114,297.769 11.488 C 298.000 11.862,297.655 12.167,297.003 12.167 C 296.351 12.167,295.817 12.510,295.817 12.928 C 295.817 13.346,295.181 13.688,294.403 13.688 C 293.625 13.688,292.346 14.544,291.561 15.589 C 290.776 16.635,289.848 17.490,289.499 17.490 C 288.593 17.490,286.692 19.513,286.692 20.478 C 286.692 20.926,286.264 21.304,285.741 21.318 C 284.398 21.354,281.369 24.011,281.369 25.154 C 281.369 25.679,281.145 25.885,280.872 25.612 C 280.599 25.339,279.592 26.177,278.635 27.474 C 277.678 28.771,276.191 30.326,275.330 30.929 C 274.469 31.532,273.764 32.540,273.764 33.168 C 273.764 33.796,273.422 34.099,273.004 33.840 C 272.586 33.582,272.243 33.904,272.243 34.556 C 272.243 35.208,271.730 35.741,271.103 35.741 C 270.475 35.741,269.962 36.002,269.962 36.320 C 269.962 36.638,268.771 38.264,267.315 39.932 C 265.859 41.601,264.661 43.268,264.653 43.636 C 264.645 44.005,263.441 45.437,261.977 46.817 C 260.513 48.198,259.316 49.839,259.316 50.464 C 259.316 51.089,258.460 52.274,257.414 53.096 C 256.369 53.919,255.513 55.056,255.513 55.623 C 255.512 56.190,254.315 57.999,252.851 59.644 C 251.388 61.288,250.190 63.085,250.190 63.636 C 250.190 64.188,249.848 64.639,249.430 64.639 C 249.011 64.639,248.669 65.343,248.669 66.205 C 248.669 67.066,248.394 67.600,248.057 67.392 C 247.720 67.184,246.782 68.276,245.973 69.818 C 245.163 71.361,244.275 72.795,243.998 73.004 C 243.721 73.213,242.518 75.268,241.323 77.570 C 240.129 79.873,238.385 82.835,237.447 84.152 C 236.509 85.469,235.741 86.767,235.741 87.036 C 235.741 87.305,234.544 89.398,233.080 91.686 C 231.616 93.975,230.418 96.155,230.418 96.531 C 230.418 97.589,227.827 101.891,227.186 101.896 C 226.873 101.899,226.616 102.323,226.616 102.840 C 226.616 104.034,222.623 112.083,221.863 112.421 C 221.549 112.560,221.293 113.355,221.293 114.186 C 221.293 115.018,220.779 116.211,220.152 116.839 C 219.525 117.466,219.011 118.639,219.011 119.446 C 219.011 120.253,218.669 120.913,218.251 120.913 C 217.833 120.913,217.490 121.408,217.490 122.013 C 217.490 122.618,216.635 124.722,215.589 126.689 C 214.544 128.656,213.688 130.727,213.688 131.292 C 213.688 131.857,213.346 132.319,212.928 132.319 C 212.510 132.319,212.167 133.028,212.167 133.895 C 212.167 134.761,211.654 135.983,211.027 136.611 C 210.399 137.238,209.886 138.582,209.886 139.598 C 209.886 140.614,209.544 141.445,209.125 141.445 C 208.707 141.445,208.365 142.280,208.365 143.301 C 208.365 144.322,208.023 145.369,207.605 145.627 C 207.186 145.886,206.844 147.104,206.844 148.334 C 206.844 149.815,206.459 150.570,205.703 150.570 C 204.994 150.570,204.563 151.289,204.563 152.471 C 204.563 153.517,204.221 154.373,203.802 154.373 C 203.384 154.373,203.031 155.485,203.018 156.844 C 203.004 158.203,202.491 159.980,201.877 160.792 C 201.263 161.604,200.760 162.887,200.760 163.643 C 200.760 164.400,200.418 165.019,200.000 165.019 C 199.582 165.019,199.240 166.217,199.240 167.681 C 199.240 169.144,198.897 170.342,198.479 170.342 C 198.061 170.342,197.719 171.731,197.719 173.429 C 197.719 175.127,197.412 176.326,197.038 176.095 C 196.124 175.530,195.437 177.495,195.437 180.671 C 195.437 182.100,195.095 183.270,194.677 183.270 C 194.259 183.270,193.916 184.600,193.916 186.225 C 193.916 187.850,193.405 190.160,192.780 191.358 C 192.156 192.556,191.642 194.990,191.640 196.768 C 191.637 198.546,191.293 200.000,190.875 200.000 C 190.401 200.000,190.114 204.313,190.114 211.418 C 190.114 224.127,191.347 228.106,195.292 228.127 C 196.258 228.133,196.870 228.426,196.651 228.778 C 196.433 229.131,198.466 229.492,201.169 229.579 C 204.204 229.677,206.084 229.432,206.084 228.938 C 206.084 228.497,207.281 228.137,208.745 228.137 C 210.209 228.137,211.407 227.795,211.407 227.376 C 211.407 226.958,212.102 226.616,212.952 226.616 C 213.801 226.616,214.677 226.146,214.897 225.571 C 215.118 224.996,216.476 223.892,217.915 223.117 C 219.355 222.342,220.532 221.295,220.532 220.791 C 220.532 220.287,221.238 219.651,222.100 219.377 C 222.962 219.103,224.043 218.054,224.503 217.044 C 224.963 216.035,225.775 215.209,226.307 215.209 C 226.839 215.209,227.466 214.610,227.701 213.878 C 227.936 213.146,228.985 211.553,230.033 210.338 C 231.947 208.120,232.335 206.480,231.478 204.245 C 230.575 201.893,225.095 203.425,225.095 206.029 C 225.095 206.477,224.582 206.844,223.954 206.844 C 223.327 206.844,222.814 207.202,222.814 207.639 C 222.814 208.671,219.318 212.167,218.286 212.167 C 217.848 212.167,217.490 212.510,217.490 212.928 C 217.490 213.346,217.090 213.688,216.600 213.688 C 216.110 213.688,215.120 214.221,214.401 214.872 C 210.820 218.113,207.207 193.858,210.744 190.321 C 211.216 189.849,211.775 187.043,211.987 184.085 C 212.199 181.127,212.607 178.707,212.894 178.707 C 213.181 178.707,213.497 176.911,213.596 174.715 C 213.695 172.519,214.098 170.397,214.492 170.000 C 214.887 169.603,215.209 168.016,215.209 166.475 C 215.209 164.933,215.720 162.692,216.345 161.494 C 216.970 160.296,217.483 158.375,217.486 157.224 C 217.488 156.074,217.833 155.133,218.251 155.133 C 218.669 155.133,219.011 153.784,219.011 152.136 C 219.011 150.488,219.354 148.928,219.772 148.669 C 220.190 148.411,220.532 147.168,220.532 145.908 C 220.532 144.648,221.046 143.104,221.673 142.477 C 222.300 141.850,222.814 140.334,222.814 139.109 C 222.814 137.884,223.156 136.882,223.574 136.882 C 223.992 136.882,224.335 135.845,224.335 134.577 C 224.335 133.229,224.808 132.090,225.475 131.834 C 226.125 131.584,226.616 130.450,226.616 129.196 C 226.616 127.986,226.958 126.996,227.376 126.996 C 227.795 126.996,228.137 125.970,228.137 124.715 C 228.137 123.460,228.479 122.433,228.897 122.433 C 229.316 122.433,229.658 121.578,229.658 120.532 C 229.658 119.487,229.977 118.631,230.367 118.631 C 230.757 118.631,231.292 117.861,231.555 116.920 C 232.207 114.595,232.932 112.875,235.271 108.105 C 236.366 105.870,237.262 103.540,237.262 102.927 C 237.262 102.313,237.605 102.023,238.023 102.281 C 238.464 102.554,238.783 101.813,238.783 100.518 C 238.783 99.290,239.297 97.859,239.924 97.338 C 240.551 96.818,241.065 95.920,241.065 95.344 C 241.065 94.768,241.407 94.297,241.825 94.297 C 242.243 94.297,242.586 93.612,242.586 92.776 C 242.586 91.939,242.928 91.255,243.346 91.255 C 243.764 91.255,244.106 90.612,244.106 89.827 C 244.106 89.042,244.620 87.973,245.247 87.452 C 245.875 86.932,246.388 86.034,246.388 85.458 C 246.388 84.882,246.730 84.411,247.148 84.411 C 247.567 84.411,247.909 83.744,247.909 82.929 C 247.909 82.114,248.764 80.524,249.810 79.396 C 250.856 78.268,251.711 76.881,251.711 76.315 C 251.711 75.749,252.053 75.285,252.471 75.285 C 252.890 75.285,253.232 74.825,253.232 74.263 C 253.232 73.700,254.087 72.246,255.132 71.031 C 256.177 69.816,257.033 68.357,257.033 67.790 C 257.034 67.223,257.890 66.086,258.935 65.263 C 259.981 64.441,260.837 63.332,260.837 62.799 C 260.837 62.266,262.034 60.597,263.498 59.090 C 264.962 57.582,266.160 56.061,266.160 55.709 C 266.160 55.358,267.357 53.800,268.821 52.248 C 270.285 50.696,271.483 49.085,271.483 48.667 C 271.483 48.250,271.850 47.909,272.298 47.909 C 273.184 47.909,275.285 46.037,275.285 45.247 C 275.285 44.613,277.312 42.586,277.947 42.586 C 278.736 42.586,280.608 40.484,280.608 39.598 C 280.608 39.150,281.122 38.783,281.749 38.783 C 282.376 38.783,282.890 38.515,282.890 38.187 C 282.890 37.859,283.831 37.030,284.981 36.344 C 286.131 35.659,287.757 34.456,288.593 33.670 C 289.430 32.885,290.735 32.006,291.493 31.716 C 292.252 31.426,292.659 30.845,292.399 30.424 C 292.138 30.002,292.562 29.658,293.339 29.658 C 294.117 29.658,295.078 29.375,295.475 29.030 C 295.873 28.684,297.738 27.935,299.620 27.364 C 301.502 26.794,303.717 25.879,304.542 25.331 C 306.270 24.183,317.871 23.933,317.871 25.044 C 317.871 25.434,318.538 25.965,319.353 26.223 C 320.168 26.482,321.048 27.366,321.309 28.187 C 321.569 29.008,322.100 29.484,322.488 29.244 C 322.876 29.004,323.194 29.797,323.194 31.005 C 323.194 34.381,326.421 35.877,328.510 33.468 C 329.350 32.499,330.038 31.095,330.038 30.347 C 330.038 29.599,330.380 28.776,330.798 28.517 C 331.230 28.251,331.559 24.489,331.559 19.833 L 331.559 11.618 328.274 8.090 L 324.989 4.563 317.984 4.563 C 312.459 4.563,310.886 4.804,310.541 5.703 M160.837 152.349 C 157.166 154.332,156.634 154.726,152.705 158.365 C 151.012 159.933,149.472 161.217,149.284 161.217 C 148.689 161.217,146.768 163.361,146.768 164.024 C 146.768 164.373,145.913 165.300,144.867 166.086 C 143.821 166.871,142.966 168.150,142.966 168.928 C 142.966 169.706,142.660 170.342,142.287 170.342 C 141.283 170.342,140.729 172.251,141.205 174.071 C 141.915 176.783,146.257 176.252,148.380 173.194 C 150.730 169.809,155.886 165.044,157.351 164.903 C 158.013 164.839,159.068 164.733,159.696 164.666 C 162.435 164.374,162.738 165.703,162.738 178.040 C 162.738 185.582,162.452 190.114,161.977 190.114 C 161.539 190.114,161.217 192.501,161.217 195.754 C 161.217 199.011,160.880 201.506,160.420 201.660 C 159.981 201.806,159.419 203.898,159.170 206.308 C 158.922 208.719,158.425 210.872,158.066 211.094 C 157.708 211.315,157.414 212.825,157.414 214.449 C 157.414 216.072,157.072 217.612,156.654 217.871 C 156.236 218.129,155.894 219.860,155.894 221.718 C 155.894 224.213,155.596 225.095,154.753 225.095 C 153.960 225.095,153.612 225.893,153.612 227.712 C 153.612 229.151,153.270 230.540,152.852 230.798 C 152.433 231.057,152.091 232.378,152.091 233.733 C 152.091 235.089,151.797 236.523,151.437 236.920 C 151.077 237.317,150.180 239.525,149.444 241.825 C 148.708 244.125,147.804 246.602,147.437 247.328 C 147.069 248.054,146.768 249.509,146.768 250.560 C 146.768 251.611,146.492 252.471,146.154 252.471 C 145.315 252.471,142.966 257.935,142.966 259.888 C 142.966 260.758,142.605 261.590,142.164 261.738 C 141.723 261.885,141.279 262.512,141.177 263.132 C 141.075 263.751,140.580 265.006,140.077 265.920 C 139.575 266.833,139.163 268.288,139.163 269.152 C 139.163 270.016,138.821 270.722,138.403 270.722 C 137.985 270.722,137.643 271.370,137.643 272.162 C 137.643 272.954,137.129 273.799,136.502 274.039 C 135.875 274.280,135.361 275.343,135.361 276.402 C 135.361 277.461,135.019 278.327,134.601 278.327 C 134.183 278.327,133.840 279.011,133.840 279.848 C 133.840 280.684,133.498 281.369,133.080 281.369 C 132.662 281.369,132.319 282.011,132.319 282.797 C 132.319 283.582,131.806 284.650,131.179 285.171 C 130.551 285.692,130.038 286.760,130.038 287.546 C 130.038 288.331,129.696 288.973,129.278 288.973 C 128.859 288.973,128.517 289.621,128.517 290.413 C 128.517 291.205,128.034 292.038,127.444 292.264 C 126.853 292.491,125.929 293.896,125.390 295.388 C 124.850 296.879,124.136 298.099,123.802 298.099 C 123.467 298.099,123.194 298.747,123.194 299.538 C 123.194 300.330,122.681 301.175,122.053 301.416 C 121.426 301.656,120.913 302.549,120.913 303.398 C 120.913 304.248,120.570 304.943,120.152 304.943 C 119.734 304.943,119.392 305.456,119.392 306.084 C 119.392 306.711,119.127 307.224,118.804 307.224 C 118.481 307.224,117.572 308.422,116.783 309.886 C 115.995 311.350,115.062 312.548,114.709 312.548 C 114.357 312.548,114.068 313.077,114.068 313.725 C 114.068 314.372,113.213 315.694,112.167 316.663 C 111.122 317.632,110.266 318.657,110.266 318.941 C 110.266 319.503,109.287 320.761,106.654 323.576 C 105.713 324.583,104.943 325.566,104.943 325.762 C 104.943 325.958,104.002 327.097,102.852 328.293 C 101.702 329.489,99.548 331.825,98.067 333.484 C 95.090 336.819,90.019 341.445,89.339 341.445 C 89.100 341.445,88.081 342.215,87.074 343.156 C 84.024 346.008,82.990 346.768,82.161 346.768 C 81.725 346.768,81.369 347.038,81.369 347.368 C 81.369 348.158,74.293 351.725,69.962 353.118 C 65.825 354.449,54.395 354.152,53.004 352.678 C 51.938 351.549,50.479 348.604,49.829 346.268 C 48.904 342.948,42.586 346.139,42.586 349.926 C 42.586 350.699,42.243 351.331,41.825 351.331 C 40.768 351.331,40.849 365.459,41.918 367.540 C 43.285 370.201,47.320 373.343,50.026 373.853 C 53.763 374.557,64.135 373.756,64.474 372.736 C 64.635 372.256,65.678 371.838,66.793 371.808 C 67.909 371.777,69.848 371.096,71.103 370.295 C 72.357 369.494,73.882 368.600,74.491 368.308 C 75.723 367.718,77.832 366.084,79.962 364.068 C 80.736 363.337,81.882 362.738,82.510 362.738 C 83.137 362.738,83.650 362.395,83.650 361.977 C 83.650 361.559,84.163 361.217,84.791 361.217 C 85.418 361.217,85.932 360.703,85.932 360.076 C 85.932 359.449,86.228 358.935,86.591 358.935 C 87.998 358.935,104.183 341.792,104.183 340.302 C 104.183 339.817,105.038 338.963,106.084 338.403 C 107.129 337.843,107.985 337.119,107.985 336.793 C 107.985 336.467,108.840 335.277,109.886 334.149 C 110.932 333.020,111.787 331.662,111.787 331.131 C 111.787 330.600,112.065 330.051,112.405 329.911 C 113.334 329.530,119.392 321.097,119.392 320.185 C 119.392 319.748,119.734 319.392,120.152 319.392 C 120.570 319.392,120.913 318.878,120.913 318.251 C 120.913 317.624,121.255 317.110,121.673 317.110 C 122.091 317.110,122.433 316.406,122.433 315.544 C 122.433 314.683,122.778 314.192,123.199 314.452 C 123.620 314.712,124.194 314.305,124.475 313.546 C 124.755 312.788,125.180 311.996,125.420 311.787 C 126.147 311.152,128.569 306.974,129.498 304.753 C 129.978 303.603,130.639 302.662,130.965 302.662 C 131.292 302.662,131.559 302.295,131.559 301.847 C 131.559 301.399,131.987 300.555,132.510 299.972 C 134.867 297.344,135.361 296.569,135.361 295.509 C 135.361 294.885,136.217 293.452,137.262 292.324 C 138.308 291.195,139.163 289.638,139.163 288.862 C 139.163 288.087,139.506 287.452,139.924 287.452 C 140.342 287.452,140.684 286.805,140.684 286.013 C 140.684 285.221,141.198 284.376,141.825 284.136 C 142.452 283.895,142.966 283.003,142.966 282.153 C 142.966 281.304,143.308 280.608,143.726 280.608 C 144.144 280.608,144.487 279.924,144.487 279.087 C 144.487 278.251,144.829 277.567,145.247 277.567 C 145.665 277.567,146.008 276.711,146.008 275.665 C 146.008 274.482,146.439 273.764,147.148 273.764 C 147.858 273.764,148.289 273.046,148.289 271.863 C 148.289 270.817,148.631 269.962,149.049 269.962 C 149.468 269.962,149.810 269.106,149.810 268.061 C 149.810 267.015,150.146 266.160,150.556 266.160 C 150.966 266.160,151.517 265.304,151.779 264.259 C 152.041 263.213,152.561 262.357,152.934 262.357 C 153.307 262.357,153.612 261.673,153.612 260.837 C 153.612 260.000,153.954 259.316,154.373 259.316 C 154.791 259.316,155.133 258.460,155.133 257.414 C 155.133 256.369,155.409 255.513,155.747 255.513 C 156.085 255.513,156.963 254.059,157.698 252.281 C 158.433 250.504,159.525 248.141,160.125 247.031 C 160.726 245.921,161.217 244.466,161.217 243.799 C 161.217 243.132,161.559 242.586,161.977 242.586 C 162.395 242.586,162.738 241.730,162.738 240.684 C 162.738 239.639,163.080 238.783,163.498 238.783 C 163.916 238.783,164.259 237.970,164.259 236.975 C 164.259 235.981,164.772 234.741,165.399 234.221 C 166.027 233.700,166.540 232.460,166.540 231.466 C 166.540 230.471,166.882 229.658,167.300 229.658 C 167.719 229.658,168.061 228.460,168.061 226.996 C 168.061 225.532,168.376 224.335,168.761 224.335 C 169.146 224.335,169.686 223.312,169.960 222.062 C 170.235 220.812,170.775 219.594,171.161 219.355 C 171.547 219.117,171.863 218.107,171.863 217.110 C 171.863 216.114,172.205 215.087,172.624 214.829 C 173.042 214.570,173.384 213.352,173.384 212.122 C 173.384 210.892,173.722 209.886,174.135 209.886 C 174.549 209.886,175.107 208.510,175.376 206.827 C 175.645 205.145,176.162 203.585,176.526 203.360 C 176.889 203.136,177.186 201.632,177.186 200.018 C 177.186 198.405,177.556 196.962,178.007 196.811 C 178.459 196.661,179.004 195.178,179.219 193.516 C 179.434 191.854,179.920 190.169,180.299 189.772 C 180.678 189.375,180.989 187.256,180.989 185.064 C 180.989 182.872,181.331 180.867,181.749 180.608 C 182.208 180.325,182.510 175.024,182.510 167.256 C 182.510 159.174,182.226 154.373,181.749 154.373 C 181.331 154.373,180.989 153.859,180.989 153.232 C 180.989 152.605,180.475 152.091,179.848 152.091 C 179.221 152.091,178.707 151.749,178.707 151.331 C 178.707 149.728,164.151 150.557,160.837 152.349 " stroke="none" fill="#b3d107" fill-rule="evenodd"></path><path id="path7" d="" stroke="none" fill="#ffff00" fill-rule="evenodd"></path><path id="path8" d="" stroke="none" fill="#00ff00" fill-rule="evenodd"></path><path id="path9" d="" stroke="none" fill="#55ff00" fill-rule="evenodd"></path></g></svg>